<?xml version="1.0" encoding="utf-8"?>
<!-- Generator: Adobe Illustrator 27.6.1, SVG Export Plug-In . SVG Version: 6.00 Build 0)  -->
<svg version="1.1" id="Capa_1" xmlns="http://www.w3.org/2000/svg" xmlns:xlink="http://www.w3.org/1999/xlink" x="0px" y="0px"
	 viewBox="0 0 1366 500" style="enable-background:new 0 0 1366 500;" xml:space="preserve">
<style type="text/css">
	.st0{fill:#C77DFF;}
</style>
<path class="st0" d="M0,240.77c50.96,16.79,95.94,31.2,133.43,43.02c78.82,24.87,102.91,31.49,136.32,36.57
	c49.48,7.53,87.07,6.76,97.36,6.45c55.08-1.6,96.4-11.76,126.58-19.36c45.68-11.51,49.76-17.16,118.79-38.73
	c30.91-9.65,73.33-22.9,116.83-32.27c53.46-11.51,71.2-9.12,173.31-17.21c103.04-8.17,154.57-12.26,198.62-23.66
	c59-15.28,116.42-32.55,157.73-66.7c6.27-5.18,25.29-21.62,54.53-34.42c21.41-9.37,40.2-13.25,52.5-15.06V0H0V240.77z"/>
</svg>
