<?xml version="1.0" encoding="utf-8"?>
<!-- Generator: Adobe Illustrator 27.6.1, SVG Export Plug-In . SVG Version: 6.00 Build 0)  -->
<svg version="1.1" xmlns="http://www.w3.org/2000/svg" xmlns:xlink="http://www.w3.org/1999/xlink" x="0px" y="0px"
	 viewBox="0 0 1366 500" style="enable-background:new 0 0 1366 500;" xml:space="preserve">
<style type="text/css">
	.st0{fill:#C77DFF;}
	.st1{fill:#B271C9;}
</style>
<g id="Capa_2">
	<rect y="0" class="st0" width="1366" height="500"/>
</g>
<g id="Capa_1">
	<g id="Capa_1_00000074414809216046541410000001856950079464882360_">
		<path class="st1" d="M0.39,403.32c61.74-20.37,151.95-48.95,245.86-74.05c18.9-5.05,45.22-11.9,80.84-13.01
			c26.67-0.82,56.31,1.63,133.93,23.01c80.91,22.29,91.12,31.3,166.52,51.03c48.94,12.81,74.05,19.25,106.18,21.01
			c13.21,0.72,59.06,2.52,131.52-16.01c56.86-14.54,139.79-35.76,206.33-94.06c70.39-61.68,83.69-130.93,154.45-169.12
			c28.42-15.34,58.76-21.7,60.33-22.01c33.25-6.75,61.92-4.56,79.64-2V0H0.39V403.32z"/>
		<line class="st1" x1="2.55" y1="499.67" x2="1.55" y2="402.48"/>
	</g>
</g>
</svg>
