<?xml version="1.0" encoding="utf-8"?>
<!-- Generator: Adobe Illustrator 27.6.1, SVG Export Plug-In . SVG Version: 6.00 Build 0)  -->
<svg version="1.1" id="Capa_1" xmlns="http://www.w3.org/2000/svg" xmlns:xlink="http://www.w3.org/1999/xlink" x="0px" y="0px"
	 viewBox="0 0 1366 500" style="enable-background:new 0 0 1366 500;" xml:space="preserve">
<style type="text/css">
	.st0{fill:#B0FF97;}
</style>
<path class="st0" d="M0,330c14.28-13.43,53.75-46.78,112-51c22.4-1.62,45.22,2.95,55,5c15.94,3.34,31.59,8.32,58,20
	c60.57,26.78,55.45,34.67,80,41c53.46,13.79,106.62-16.2,124-26c29.62-16.71,26.03-24.32,65-46c16.46-9.15,34.64-17.1,71-33
	c23.94-10.47,35.91-15.7,50-21c17.92-6.74,22.74-7.68,75-24c10.46-3.27,34.03-10.63,60-19c60.04-19.34,53.91-18.59,64-21
	c45.41-10.84,62.61-17.87,112-23c38.72-4.02,86-12,86-12c87.81-21.19,161.57,10.06,218,26c34.36,9.71,82.55,26.77,136,58v296H0
	L0,330z"/>
</svg>
