<?xml version="1.0" encoding="utf-8"?>
<!-- Generator: Adobe Illustrator 27.6.1, SVG Export Plug-In . SVG Version: 6.00 Build 0)  -->
<svg version="1.1" id="Capa_1" xmlns="http://www.w3.org/2000/svg" xmlns:xlink="http://www.w3.org/1999/xlink" x="0px" y="0px"
	 viewBox="0 0 1366 400" style="enable-background:new 0 0 1366 400;" xml:space="preserve">
<style type="text/css">
	.st0{fill:#C77DFF;}
</style>
<path class="st0" d="M625,400.06c17.67-3.27,32.04-5.67,41.8-7.24c13.88-2.24,22.26-3.43,37.72-6.21
	c24.41-4.39,30.73-6.31,33.64-7.24c5.27-1.68,13.45-5.28,29.56-12.41c24.52-10.85,28.2-13.11,31.6-15.52
	c6.61-4.69,11.3-9.74,20.39-19.67c5.77-6.29,14.47-16.16,31.6-38.29c17.69-22.84,18.38-25.2,25.49-31.04
	c11.35-9.33,22.36-13.82,31.6-17.59c6.2-2.53,19.55-7.53,37.72-10.35c30.42-4.72,60.55-1.19,79.52,1.04
	c2.4,0.28,8.76,1.06,17.33,1.04c11.51-0.04,19.88-1.51,23.45-2.07c15.99-2.52,29.72-1.61,54.03,0c11.11,0.73,21.67,2.22,42.82,5.17
	c43.39,6.07,45.72,8.15,59.12,7.24c14.82-1,11.46-3.51,44.85-10.35c19.04-3.9,24.74-4.03,56.07-9.31
	c17.19-2.89,33.72-5.5,42.82-7.24v180.06L625,400.06L625,400.06z"/>
</svg>
