<svg xmlns="http://www.w3.org/2000/svg" xmlns:xlink="http://www.w3.org/1999/xlink" width="950" zoomAndPan="magnify" viewBox="0 0 712.5 74.999997" height="100" preserveAspectRatio="xMidYMid meet" version="1.0"><defs><g/></defs><g fill="#ffffff" fill-opacity="1"><g transform="translate(159.030268, 54.201323)"><g><path d="M 35.988281 -28.964844 C 35.988281 -35.808594 30.738281 -41.296875 24.246094 -41.296875 L 1.769531 -41.296875 L 1.769531 -40.941406 C 3.714844 -40.941406 5.308594 -39.351562 5.308594 -37.402344 L 5.308594 -3.894531 C 5.308594 -1.945312 3.714844 -0.355469 1.769531 -0.355469 L 1.769531 0 L 19.292969 0 L 19.292969 -0.355469 C 17.285156 -0.355469 15.691406 -1.945312 15.691406 -3.894531 L 15.691406 -13.097656 C 21.296875 -14.160156 35.988281 -16.402344 35.988281 -28.964844 Z M 18.230469 -40.941406 C 21.945312 -40.941406 24.953125 -35.574219 24.953125 -28.964844 C 24.953125 -22.0625 22.417969 -16.695312 15.691406 -13.6875 L 15.691406 -40.941406 Z M 18.230469 -40.941406 "/></g></g></g><g fill="#ffffff" fill-opacity="1"><g transform="translate(196.785237, 54.201323)"><g><path d="M 26.3125 -4.425781 L 26.3125 -22.242188 C 26.3125 -25.132812 24.363281 -27.136719 22.125 -28.257812 C 19.882812 -29.4375 16.929688 -29.851562 13.863281 -29.378906 C 9.675781 -28.789062 3.953125 -25.722656 3.953125 -21.121094 C 3.953125 -18.582031 5.957031 -16.578125 8.496094 -16.578125 C 11.03125 -16.578125 13.097656 -18.582031 13.097656 -21.121094 C 13.097656 -23.832031 10.558594 -24.601562 10.558594 -26.785156 C 10.558594 -28.023438 11.800781 -28.730469 13.921875 -29.027344 C 16.8125 -29.496094 19.644531 -29.085938 21.945312 -27.964844 C 23.832031 -27.019531 25.425781 -25.308594 25.425781 -23.714844 C 25.425781 -19.171875 11.621094 -17.167969 6.546875 -13.980469 C 3.304688 -11.976562 1.414062 -8.496094 2.359375 -5.132812 C 3.246094 -1.828125 6.546875 0.296875 10.265625 0.296875 C 13.570312 0.296875 15.988281 -1.179688 17.402344 -2.242188 L 17.402344 -0.765625 C 17.402344 -0.175781 17.875 0.296875 18.464844 0.296875 C 18.523438 0.296875 18.582031 0.296875 18.582031 0.296875 L 28.730469 -1.179688 L 28.730469 -1.535156 C 27.375 -1.769531 26.3125 -3.007812 26.3125 -4.425781 Z M 17.402344 -2.65625 C 16.105469 -1.710938 14.101562 -2.066406 12.800781 -3.480469 C 11.5625 -4.835938 10.855469 -7.019531 11.03125 -9.851562 C 11.386719 -14.808594 14.984375 -16.695312 17.402344 -17.816406 Z M 17.402344 -2.65625 "/></g></g></g><g fill="#ffffff" fill-opacity="1"><g transform="translate(226.989213, 54.201323)"><g><path d="M 15.929688 -2.125 C 14.160156 -2.125 12.742188 -3.539062 12.742188 -5.308594 L 12.742188 -28.613281 L 16.578125 -28.613281 L 16.578125 -28.964844 L 12.742188 -28.964844 L 12.742188 -34.277344 L 12.390625 -34.277344 C 9.851562 -31.03125 5.898438 -28.964844 1.476562 -28.964844 L 1.476562 -28.613281 L 3.894531 -28.613281 L 3.894531 -6.3125 C 3.894531 -2.65625 6.84375 0.296875 10.5 0.296875 C 13.804688 0.296875 16.28125 -1.179688 17.699219 -2.242188 L 17.699219 -2.65625 C 17.167969 -2.300781 16.578125 -2.125 15.929688 -2.125 Z M 15.929688 -2.125 "/></g></g></g><g fill="#ffffff" fill-opacity="1"><g transform="translate(245.571738, 54.201323)"><g><path d="M 20.292969 -30.144531 C 17.992188 -30.265625 14.867188 -28.789062 12.742188 -27.667969 L 12.742188 -27.964844 C 12.742188 -28.496094 12.328125 -28.964844 11.738281 -28.964844 C 11.679688 -28.964844 11.621094 -28.964844 11.5625 -28.964844 L 1.476562 -27.492188 L 1.476562 -27.136719 C 2.832031 -26.902344 3.894531 -25.722656 3.894531 -24.246094 L 3.894531 -3.246094 C 3.894531 -1.828125 2.832031 -0.589844 1.476562 -0.355469 L 1.476562 0 L 15.160156 0 L 15.160156 -0.355469 C 13.804688 -0.589844 12.742188 -1.828125 12.742188 -3.246094 L 12.742188 -27.316406 C 13.6875 -27.785156 14.453125 -28.023438 14.984375 -28.023438 C 15.574219 -28.023438 15.929688 -27.726562 15.929688 -27.136719 C 15.929688 -26.664062 15.75 -26.371094 15.75 -25.605469 C 15.75 -23.066406 17.816406 -21.003906 20.292969 -21.003906 C 22.832031 -21.003906 24.894531 -23.066406 24.894531 -25.605469 C 24.894531 -28.082031 22.832031 -30.027344 20.292969 -30.144531 Z M 20.292969 -30.144531 "/></g></g></g><g fill="#ffffff" fill-opacity="1"><g transform="translate(271.941222, 54.201323)"><g><path d="M 3.894531 -3.246094 C 3.894531 -1.828125 2.832031 -0.589844 1.476562 -0.355469 L 1.476562 0 L 15.160156 0 L 15.160156 -0.355469 C 13.804688 -0.589844 12.742188 -1.828125 12.742188 -3.246094 L 12.742188 -27.964844 C 12.742188 -28.554688 12.328125 -28.964844 11.738281 -28.964844 C 11.679688 -28.964844 11.621094 -28.964844 11.5625 -28.964844 L 1.476562 -27.492188 L 1.476562 -27.136719 C 2.832031 -26.902344 3.894531 -25.722656 3.894531 -24.246094 Z M 12.917969 -36.695312 C 12.917969 -39.230469 10.855469 -41.296875 8.316406 -41.296875 C 5.78125 -41.296875 3.777344 -39.230469 3.777344 -36.695312 C 3.777344 -34.21875 5.78125 -32.152344 8.316406 -32.152344 C 10.855469 -32.152344 12.917969 -34.21875 12.917969 -36.695312 Z M 12.917969 -36.695312 "/></g></g></g><g fill="#ffffff" fill-opacity="1"><g transform="translate(288.577005, 54.201323)"><g><path d="M 15.515625 -29.203125 C 16.929688 -29.203125 20.292969 -28.964844 20.292969 -26.902344 C 20.292969 -24.835938 17.757812 -24.304688 17.757812 -21.238281 C 17.757812 -18.703125 19.824219 -16.695312 22.300781 -16.695312 C 24.835938 -16.695312 26.902344 -18.703125 26.902344 -21.238281 C 26.902344 -24.953125 21.53125 -29.554688 15.515625 -29.554688 C 8.082031 -29.554688 2.066406 -22.890625 2.066406 -14.628906 C 2.066406 -6.371094 8.082031 0.296875 15.515625 0.296875 C 20.292969 0.296875 24.542969 -2.476562 26.902344 -6.726562 L 26.605469 -6.902344 C 24.953125 -4.957031 22.832031 -3.777344 20.53125 -3.777344 C 15.222656 -3.777344 10.914062 -10.089844 10.914062 -17.875 C 10.914062 -24.128906 13.980469 -29.203125 15.515625 -29.203125 Z M 15.515625 -29.203125 "/></g></g></g><g fill="#ffffff" fill-opacity="1"><g transform="translate(316.952226, 54.201323)"><g><path d="M 3.894531 -3.246094 C 3.894531 -1.828125 2.832031 -0.589844 1.476562 -0.355469 L 1.476562 0 L 15.160156 0 L 15.160156 -0.355469 C 13.804688 -0.589844 12.742188 -1.828125 12.742188 -3.246094 L 12.742188 -27.964844 C 12.742188 -28.554688 12.328125 -28.964844 11.738281 -28.964844 C 11.679688 -28.964844 11.621094 -28.964844 11.5625 -28.964844 L 1.476562 -27.492188 L 1.476562 -27.136719 C 2.832031 -26.902344 3.894531 -25.722656 3.894531 -24.246094 Z M 12.917969 -36.695312 C 12.917969 -39.230469 10.855469 -41.296875 8.316406 -41.296875 C 5.78125 -41.296875 3.777344 -39.230469 3.777344 -36.695312 C 3.777344 -34.21875 5.78125 -32.152344 8.316406 -32.152344 C 10.855469 -32.152344 12.917969 -34.21875 12.917969 -36.695312 Z M 12.917969 -36.695312 "/></g></g></g><g fill="#ffffff" fill-opacity="1"><g transform="translate(333.588008, 54.201323)"><g><path d="M 26.3125 -4.425781 L 26.3125 -22.242188 C 26.3125 -25.132812 24.363281 -27.136719 22.125 -28.257812 C 19.882812 -29.4375 16.929688 -29.851562 13.863281 -29.378906 C 9.675781 -28.789062 3.953125 -25.722656 3.953125 -21.121094 C 3.953125 -18.582031 5.957031 -16.578125 8.496094 -16.578125 C 11.03125 -16.578125 13.097656 -18.582031 13.097656 -21.121094 C 13.097656 -23.832031 10.558594 -24.601562 10.558594 -26.785156 C 10.558594 -28.023438 11.800781 -28.730469 13.921875 -29.027344 C 16.8125 -29.496094 19.644531 -29.085938 21.945312 -27.964844 C 23.832031 -27.019531 25.425781 -25.308594 25.425781 -23.714844 C 25.425781 -19.171875 11.621094 -17.167969 6.546875 -13.980469 C 3.304688 -11.976562 1.414062 -8.496094 2.359375 -5.132812 C 3.246094 -1.828125 6.546875 0.296875 10.265625 0.296875 C 13.570312 0.296875 15.988281 -1.179688 17.402344 -2.242188 L 17.402344 -0.765625 C 17.402344 -0.175781 17.875 0.296875 18.464844 0.296875 C 18.523438 0.296875 18.582031 0.296875 18.582031 0.296875 L 28.730469 -1.179688 L 28.730469 -1.535156 C 27.375 -1.769531 26.3125 -3.007812 26.3125 -4.425781 Z M 17.402344 -2.65625 C 16.105469 -1.710938 14.101562 -2.066406 12.800781 -3.480469 C 11.5625 -4.835938 10.855469 -7.019531 11.03125 -9.851562 C 11.386719 -14.808594 14.984375 -16.695312 17.402344 -17.816406 Z M 17.402344 -2.65625 "/></g></g></g><g fill="#ffffff" fill-opacity="1"><g transform="translate(363.791984, 54.201323)"><g/></g></g><g fill="#ffffff" fill-opacity="1"><g transform="translate(380.309789, 54.201323)"><g><path d="M 49.261719 -40.941406 L 49.261719 -41.296875 L 36.105469 -41.296875 L 27.492188 -16.402344 L 18.820312 -41.296875 L 5.015625 -41.296875 L 5.015625 -40.941406 L 5.191406 -40.941406 C 7.136719 -40.941406 8.730469 -39.351562 8.730469 -37.402344 L 8.730469 -7.433594 C 8.730469 -3.597656 5.605469 -0.355469 1.769531 -0.355469 L 1.769531 0 L 15.988281 0 L 15.988281 -0.355469 C 12.152344 -0.355469 9.085938 -3.597656 9.085938 -7.433594 L 9.085938 -37.699219 L 22.125 0 L 35.277344 -37.875 C 35.339844 -37.933594 35.277344 -37.875 35.339844 -37.933594 L 35.339844 -3.894531 C 35.339844 -1.945312 33.746094 -0.355469 31.738281 -0.355469 L 31.738281 0 L 49.261719 0 L 49.261719 -0.355469 C 47.3125 -0.355469 45.722656 -1.945312 45.722656 -3.894531 L 45.722656 -37.402344 C 45.722656 -39.351562 47.3125 -40.941406 49.261719 -40.941406 Z M 49.261719 -40.941406 "/></g></g></g><g fill="#ffffff" fill-opacity="1"><g transform="translate(431.338003, 54.201323)"><g><path d="M 28.257812 -4.425781 L 28.257812 -27.964844 C 28.257812 -28.554688 27.84375 -28.964844 27.253906 -28.964844 L 27.078125 -28.964844 L 16.992188 -27.492188 L 16.992188 -27.136719 C 18.347656 -26.902344 19.410156 -25.722656 19.410156 -24.246094 L 19.410156 -1.945312 C 19.054688 -1.769531 16.636719 -0.589844 13.6875 -0.589844 C 11.386719 -0.589844 9.675781 -1.414062 9.675781 -2.65625 C 9.675781 -4.835938 12.742188 -5.605469 12.742188 -8.613281 L 12.742188 -27.964844 C 12.742188 -28.554688 12.328125 -28.964844 11.738281 -28.964844 L 11.5625 -28.964844 L 1.476562 -27.492188 L 1.476562 -27.136719 C 2.832031 -26.902344 3.894531 -25.722656 3.894531 -24.246094 L 3.894531 -7.789062 C 3.894531 2.183594 13.980469 1.179688 19.410156 -1.59375 L 19.410156 -0.707031 C 19.410156 -0.175781 19.882812 0.296875 20.414062 0.296875 L 20.589844 0.296875 L 30.675781 -1.179688 L 30.675781 -1.535156 C 29.320312 -1.769531 28.257812 -3.007812 28.257812 -4.425781 Z M 28.257812 -4.425781 "/></g></g></g><g fill="#ffffff" fill-opacity="1"><g transform="translate(463.48871, 54.201323)"><g><path d="M 28.257812 -3.246094 L 28.257812 -21.472656 C 28.257812 -31.445312 18.171875 -30.441406 12.742188 -27.726562 L 12.742188 -27.964844 C 12.742188 -28.554688 12.328125 -28.964844 11.738281 -28.964844 C 11.679688 -28.964844 11.621094 -28.964844 11.5625 -28.964844 L 1.476562 -27.492188 L 1.476562 -27.136719 C 2.832031 -26.902344 3.894531 -25.722656 3.894531 -24.246094 L 3.894531 -3.246094 C 3.894531 -1.828125 2.832031 -0.589844 1.476562 -0.355469 L 1.476562 0 L 15.160156 0 L 15.160156 -0.355469 C 13.804688 -0.589844 12.742188 -1.828125 12.742188 -3.246094 L 12.742188 -27.316406 C 13.6875 -27.785156 15.871094 -28.671875 18.464844 -28.671875 C 20.824219 -28.671875 22.476562 -27.90625 22.476562 -26.605469 C 22.476562 -24.425781 19.410156 -23.65625 19.410156 -20.648438 L 19.410156 -3.246094 C 19.410156 -1.828125 18.347656 -0.589844 16.992188 -0.355469 L 16.992188 0 L 30.675781 0 L 30.675781 -0.355469 C 29.320312 -0.589844 28.257812 -1.828125 28.257812 -3.246094 Z M 19.351562 -36.753906 C 17.402344 -36.753906 15.101562 -39.644531 12.683594 -39.644531 C 10.914062 -39.644531 9.4375 -38.289062 9.261719 -36.519531 L 11.03125 -36.164062 C 11.03125 -37.109375 11.800781 -37.875 12.683594 -37.875 C 14.511719 -37.875 16.695312 -34.984375 19.351562 -34.984375 C 21.179688 -34.984375 22.652344 -36.339844 22.832031 -38.109375 L 21.0625 -38.464844 C 21.0625 -37.519531 20.292969 -36.753906 19.351562 -36.753906 Z M 19.351562 -36.753906 "/></g></g></g><g fill="#ffffff" fill-opacity="1"><g transform="translate(495.639417, 54.201323)"><g><path d="M 15.515625 -29.554688 C 8.082031 -29.554688 2.066406 -22.890625 2.066406 -14.628906 C 2.066406 -6.371094 8.082031 0.296875 15.515625 0.296875 C 22.949219 0.296875 28.964844 -6.371094 28.964844 -14.628906 C 28.964844 -22.890625 22.949219 -29.554688 15.515625 -29.554688 Z M 15.515625 -0.0585938 C 12.566406 -0.0585938 10.914062 -4.957031 10.914062 -14.628906 C 10.914062 -24.363281 12.566406 -29.203125 15.515625 -29.203125 C 18.464844 -29.203125 20.058594 -24.363281 20.058594 -14.628906 C 20.058594 -4.957031 18.464844 -0.0585938 15.515625 -0.0585938 Z M 15.515625 -0.0585938 "/></g></g></g><g fill="#ffffff" fill-opacity="1"><g transform="translate(526.66929, 54.201323)"><g><path d="M 1.886719 0 C 2.476562 -1.0625 3.480469 -1.476562 4.660156 -1.476562 C 9.027344 -1.476562 15.929688 3.777344 20.234375 1.179688 C 24.011719 -1.652344 24.601562 -6.667969 24.601562 -6.667969 L 24.246094 -6.726562 C 22.242188 -1.886719 9.085938 -12.152344 4.304688 -7.078125 C 6.667969 -10.207031 10.207031 -13.097656 13.273438 -15.339844 C 16.046875 -17.34375 18.582031 -18.9375 20.589844 -20.53125 C 23.421875 -22.773438 25.25 -25.074219 25.308594 -28.730469 L 25.015625 -28.964844 L 5.78125 -28.964844 C 4.777344 -28.964844 4.011719 -28.257812 4.011719 -27.375 L 4.011719 -19.054688 L 4.367188 -19.054688 C 5.015625 -20.058594 5.898438 -20.765625 8.082031 -20.765625 L 20.351562 -20.765625 C 18.347656 -19.171875 15.8125 -17.640625 13.039062 -15.574219 C 7.789062 -11.738281 0.886719 -5.957031 1.535156 0 Z M 1.886719 0 "/></g></g></g></svg>