<svg xmlns="http://www.w3.org/2000/svg" xmlns:xlink="http://www.w3.org/1999/xlink" width="950" zoomAndPan="magnify" viewBox="0 0 712.5 74.999997" height="100" preserveAspectRatio="xMidYMid meet" version="1.0"><defs><g/></defs><g fill="#ffffff" fill-opacity="1"><g transform="translate(194.889266, 53.43503)"><g><path d="M 9.03125 0 L 9.03125 -16.96875 L 16.464844 -16.96875 C 25.199219 -16.96875 29.863281 -23.351562 29.863281 -29.484375 C 29.863281 -35.617188 25.578125 -42 18.480469 -42 L 2.941406 -42 L 2.941406 0 Z M 12.601562 -41.453125 C 20.074219 -41.453125 23.773438 -35.363281 23.773438 -29.398438 C 23.773438 -23.5625 19.992188 -17.597656 12.601562 -17.597656 L 9.03125 -17.597656 L 9.03125 -41.453125 Z M 12.601562 -41.453125 "/></g></g><g transform="translate(226.431263, 53.43503)"><g><path d="M 1.261719 -5.628906 C 1.261719 -1.722656 5.460938 0.421875 9.40625 0.421875 C 17.179688 0.421875 21.378906 -5.125 21.378906 -8.902344 L 21.378906 0 L 27.550781 0 C 25.828125 -7.015625 24.820312 -11.59375 23.351562 -17.554688 C 21.882812 -23.5625 21.253906 -28.980469 12.894531 -28.980469 C 8.148438 -28.980469 2.6875 -26.082031 1.46875 -20.832031 C 3.613281 -20.707031 8.148438 -19.949219 12.265625 -18.226562 C 6.761719 -15.246094 1.261719 -10.878906 1.261719 -5.628906 Z M 20.746094 -8.902344 C 20.746094 -6.214844 17.429688 -1.261719 13.355469 -1.261719 C 9.910156 -1.261719 7.183594 -3.484375 7.183594 -6.550781 C 7.183594 -10.878906 10.289062 -14.699219 13.984375 -17.472656 C 17.722656 -15.582031 20.746094 -12.851562 20.746094 -8.902344 Z M 13.144531 -18.730469 C 11.761719 -19.320312 10.207031 -19.867188 8.609375 -20.328125 C 7.894531 -20.539062 7.769531 -21.253906 7.769531 -21.628906 C 7.769531 -23.351562 10.585938 -27.132812 15.875 -27.132812 C 18.691406 -27.132812 21.085938 -25.492188 21.335938 -22.050781 C 19.402344 -21.503906 16.339844 -20.328125 13.144531 -18.730469 Z M 21.378906 -21.335938 L 21.378906 -8.902344 C 21.378906 -13.019531 18.691406 -15.875 14.699219 -17.976562 C 16.925781 -19.53125 19.363281 -20.707031 21.378906 -21.335938 Z M 21.378906 -21.335938 "/></g></g><g transform="translate(254.823261, 53.43503)"><g><path d="M 3.484375 -27.929688 L 3.484375 -4.703125 C 3.484375 -2.183594 5.125 0.421875 8.441406 0.421875 C 9.660156 0.421875 12.851562 -1.722656 14.742188 -2.855469 L 14.65625 -3.066406 C 14.027344 -2.8125 13.3125 -2.730469 12.558594 -2.730469 C 10.039062 -2.730469 9.574219 -4.621094 9.574219 -6.679688 C 9.574219 -15.078125 9.574219 -21 9.617188 -27.929688 L 13.984375 -27.929688 L 13.984375 -28.558594 L 9.617188 -28.558594 C 9.617188 -31.332031 9.660156 -34.273438 9.660156 -37.632812 L 0 -27.929688 Z M 3.484375 -27.929688 "/></g></g></g><g fill="#ffffff" fill-opacity="1"><g transform="translate(269.565251, 53.43503)"><g><path d="M 0 -25.957031 L 0 -25.746094 C 2.058594 -25.746094 2.980469 -25.285156 2.980469 -23.015625 L 2.980469 0 L 9.070312 0 L 9.070312 -16.546875 C 9.070312 -21.085938 12.097656 -23.773438 15.371094 -23.773438 C 17.261719 -23.773438 18.773438 -23.140625 20.242188 -22.429688 L 22.46875 -27.929688 C 21.292969 -28.644531 19.867188 -28.980469 18.1875 -28.980469 C 12.683594 -28.980469 9.996094 -23.855469 9.070312 -19.949219 L 9.070312 -28.980469 C 6.886719 -27.71875 3.109375 -26.335938 0 -25.957031 Z M 0 -25.957031 "/></g></g><g transform="translate(292.875249, 53.43503)"><g><path d="M 0 -25.957031 L 0 -25.746094 C 2.058594 -25.746094 2.980469 -25.285156 2.980469 -23.015625 L 2.980469 0 L 9.070312 0 L 9.070312 -28.980469 C 6.886719 -27.71875 3.109375 -26.335938 0 -25.957031 Z M 2.226562 -33.976562 C 2.226562 -32.046875 3.78125 -30.492188 5.710938 -30.492188 C 7.644531 -30.492188 9.199219 -32.046875 9.199219 -33.976562 C 9.199219 -35.867188 7.644531 -37.421875 5.710938 -37.421875 C 3.78125 -37.421875 2.226562 -35.867188 2.226562 -33.976562 Z M 2.226562 -33.976562 "/></g></g></g><g fill="#ffffff" fill-opacity="1"><g transform="translate(304.593243, 53.43503)"><g><path d="M 16.339844 0.421875 C 19.027344 0.421875 21.796875 0 24.023438 -1.09375 L 26.417969 -8.527344 L 26.207031 -8.527344 C 24.570312 -6.46875 21.460938 -5.082031 18.3125 -5.082031 C 10.667969 -5.082031 6.007812 -11.425781 6.007812 -19.195312 C 6.007812 -23.226562 8.148438 -27.34375 12.390625 -27.34375 C 17.472656 -27.34375 20.203125 -22.722656 22.050781 -18.019531 L 27.214844 -20.746094 C 24.738281 -26.25 20.664062 -28.558594 15.035156 -28.558594 C 6.886719 -28.558594 2.101562 -21.335938 2.101562 -13.648438 C 2.101562 -5.671875 8.527344 0.421875 16.339844 0.421875 Z M 16.339844 0.421875 "/></g></g></g><g fill="#ffffff" fill-opacity="1"><g transform="translate(332.649231, 53.43503)"><g><path d="M 0 -25.957031 L 0 -25.746094 C 2.058594 -25.746094 2.980469 -25.285156 2.980469 -23.015625 L 2.980469 0 L 9.070312 0 L 9.070312 -28.980469 C 6.886719 -27.71875 3.109375 -26.335938 0 -25.957031 Z M 2.226562 -33.976562 C 2.226562 -32.046875 3.78125 -30.492188 5.710938 -30.492188 C 7.644531 -30.492188 9.199219 -32.046875 9.199219 -33.976562 C 9.199219 -35.867188 7.644531 -37.421875 5.710938 -37.421875 C 3.78125 -37.421875 2.226562 -35.867188 2.226562 -33.976562 Z M 2.226562 -33.976562 "/></g></g></g><g fill="#ffffff" fill-opacity="1"><g transform="translate(344.367225, 53.43503)"><g><path d="M 1.261719 -5.628906 C 1.261719 -1.722656 5.460938 0.421875 9.40625 0.421875 C 17.179688 0.421875 21.378906 -5.125 21.378906 -8.902344 L 21.378906 0 L 27.550781 0 C 25.828125 -7.015625 24.820312 -11.59375 23.351562 -17.554688 C 21.882812 -23.5625 21.253906 -28.980469 12.894531 -28.980469 C 8.148438 -28.980469 2.6875 -26.082031 1.46875 -20.832031 C 3.613281 -20.707031 8.148438 -19.949219 12.265625 -18.226562 C 6.761719 -15.246094 1.261719 -10.878906 1.261719 -5.628906 Z M 20.746094 -8.902344 C 20.746094 -6.214844 17.429688 -1.261719 13.355469 -1.261719 C 9.910156 -1.261719 7.183594 -3.484375 7.183594 -6.550781 C 7.183594 -10.878906 10.289062 -14.699219 13.984375 -17.472656 C 17.722656 -15.582031 20.746094 -12.851562 20.746094 -8.902344 Z M 13.144531 -18.730469 C 11.761719 -19.320312 10.207031 -19.867188 8.609375 -20.328125 C 7.894531 -20.539062 7.769531 -21.253906 7.769531 -21.628906 C 7.769531 -23.351562 10.585938 -27.132812 15.875 -27.132812 C 18.691406 -27.132812 21.085938 -25.492188 21.335938 -22.050781 C 19.402344 -21.503906 16.339844 -20.328125 13.144531 -18.730469 Z M 21.378906 -21.335938 L 21.378906 -8.902344 C 21.378906 -13.019531 18.691406 -15.875 14.699219 -17.976562 C 16.925781 -19.53125 19.363281 -20.707031 21.378906 -21.335938 Z M 21.378906 -21.335938 "/></g></g><g transform="translate(372.759222, 53.43503)"><g/></g></g><g fill="#ffffff" fill-opacity="1"><g transform="translate(389.559216, 53.43503)"><g><path d="M 13.945312 0 L 13.945312 -0.210938 C 4.621094 -3.613281 6.132812 -21 7.183594 -28.519531 C 8.023438 -34.523438 8.023438 -34.480469 8.863281 -40.320312 C 10.375 -39.101562 10.625 -37.042969 11.089844 -33.683594 C 11.550781 -29.566406 11.886719 -26.921875 12.558594 -22.21875 C 13.355469 -17.515625 14.113281 -0.589844 23.394531 -0.589844 C 27.71875 -0.589844 28.183594 -3.738281 28.183594 -5.628906 C 28.183594 -11.71875 24.191406 -25.996094 24.191406 -32.425781 C 24.191406 -35.449219 24.695312 -39.730469 27.804688 -39.730469 C 30.703125 -39.730469 30.660156 -35.113281 31.164062 -31.414062 C 32.800781 -19.445312 33.808594 -12.265625 35.488281 0 L 41.789062 0 C 40.109375 -12.265625 39.226562 -19.402344 37.464844 -31.457031 C 36.707031 -36.664062 36.496094 -42.421875 30.910156 -42.421875 C 26.082031 -42.421875 23.183594 -38.722656 23.4375 -32.382812 C 23.6875 -26.375 25.492188 -18.859375 26.125 -14.910156 C 27.089844 -8.734375 28.433594 -3.527344 25.074219 -3.527344 C 22.511719 -3.527344 20.746094 -9.574219 20.074219 -13.902344 C 18.730469 -22.679688 18.058594 -28.140625 16.675781 -37.882812 C 16.296875 -40.53125 14.910156 -42 12.9375 -42 L 3.863281 -42 L 3.863281 -41.789062 C 4.703125 -41.707031 5.417969 -41.621094 6.046875 -41.496094 C 8.988281 -40.445312 7.8125 -37.464844 7.390625 -34.945312 L 0.839844 0 Z M 13.945312 0 "/></g></g></g><g fill="#ffffff" fill-opacity="1"><g transform="translate(432.189208, 53.43503)"><g><path d="M 9.742188 0.421875 C 15.835938 0.421875 19.445312 -5.082031 20.035156 -8.609375 L 20.035156 0 L 26.125 0 L 26.125 -28.558594 L 20.035156 -28.558594 L 20.035156 -12.683594 C 20.035156 -6.847656 16.507812 -1.46875 12.011719 -1.46875 C 9.996094 -1.46875 8.609375 -2.773438 8.609375 -5.460938 L 8.609375 -28.558594 L 2.519531 -28.558594 L 2.519531 -7.558594 C 2.519531 0 7.519531 0.421875 9.742188 0.421875 Z M 9.742188 0.421875 "/></g></g></g><g fill="#ffffff" fill-opacity="1"><g transform="translate(460.833217, 53.43503)"><g><path d="M 0 -25.957031 L 0 -25.746094 C 2.058594 -25.746094 2.980469 -25.285156 2.980469 -23.015625 L 2.980469 0 L 9.070312 0 L 9.070312 -15.875 C 9.070312 -21.714844 12.601562 -27.089844 17.09375 -27.089844 C 19.109375 -27.089844 20.496094 -25.789062 20.496094 -23.101562 L 20.496094 0 L 26.585938 0 L 26.585938 -21 C 26.585938 -28.558594 21.589844 -28.980469 19.363281 -28.980469 C 13.273438 -28.980469 9.660156 -23.476562 9.070312 -19.949219 L 9.070312 -28.980469 C 6.886719 -27.71875 3.109375 -26.335938 0 -25.957031 Z M 5.542969 -31.921875 L 6.511719 -30.828125 C 7.097656 -32.214844 8.230469 -33.558594 10.542969 -33.640625 C 14.574219 -33.769531 17.386719 -31.078125 20.578125 -31.078125 C 22.09375 -31.078125 23.5625 -32.089844 23.773438 -32.886719 L 23.058594 -34.144531 C 22.679688 -33.304688 21.714844 -32.632812 20.578125 -32.632812 C 17.386719 -32.632812 14.574219 -35.363281 10.542969 -35.195312 C 8.230469 -35.113281 6.132812 -33.304688 5.542969 -31.921875 Z M 5.542969 -31.921875 "/></g></g></g><g fill="#ffffff" fill-opacity="1"><g transform="translate(489.9392, 53.43503)"><g><path d="M 13.945312 0.421875 C 20.539062 0.421875 25.828125 -4.285156 25.828125 -14.28125 C 25.828125 -24.277344 20.453125 -28.980469 13.945312 -28.980469 C 7.140625 -28.980469 2.101562 -24.277344 2.101562 -14.28125 C 2.101562 -4.285156 7.390625 0.421875 13.945312 0.421875 Z M 10.753906 -27.929688 C 14.152344 -28.769531 18.394531 -23.308594 20.160156 -15.792969 C 21.925781 -8.273438 20.621094 -1.511719 17.21875 -0.671875 C 13.859375 0.167969 9.617188 -5.25 7.855469 -12.769531 C 6.089844 -20.328125 7.390625 -27.089844 10.753906 -27.929688 Z M 10.753906 -27.929688 "/></g></g></g><g fill="#ffffff" fill-opacity="1"><g transform="translate(517.869189, 53.43503)"><g><path d="M 24.191406 0 L 24.191406 -7.601562 C 20.242188 -4.324219 14.320312 -1.007812 7.8125 -0.589844 L 24.738281 -28.558594 L 1.511719 -28.558594 L 1.511719 -20.957031 C 5.460938 -24.191406 11.296875 -27.511719 17.765625 -27.972656 L 0.839844 0 Z M 24.191406 0 "/></g></g></g></svg>