<svg xmlns="http://www.w3.org/2000/svg" xmlns:xlink="http://www.w3.org/1999/xlink" width="500" zoomAndPan="magnify" viewBox="0 0 375 374.999991" height="500" preserveAspectRatio="xMidYMid meet" version="1.0"><defs><g/><radialGradient gradientTransform="matrix(1, 0, 0, 1, 0.0000045, 0)" gradientUnits="userSpaceOnUse" r="265.165051" cx="187.499996" id="cfe4ea3322" cy="187.499996" fx="187.499996" fy="187.499996"><stop stop-opacity="1" stop-color="rgb(82.038879%, 68.835449%, 85.948181%)" offset="0"/><stop stop-opacity="1" stop-color="rgb(82.098389%, 68.592834%, 86.021423%)" offset="0.0078125"/><stop stop-opacity="1" stop-color="rgb(82.138062%, 68.429565%, 86.071777%)" offset="0.0117188"/><stop stop-opacity="1" stop-color="rgb(82.177734%, 68.267822%, 86.120605%)" offset="0.015625"/><stop stop-opacity="1" stop-color="rgb(82.218933%, 68.104553%, 86.169434%)" offset="0.0195312"/><stop stop-opacity="1" stop-color="rgb(82.258606%, 67.94281%, 86.218262%)" offset="0.0234375"/><stop stop-opacity="1" stop-color="rgb(82.298279%, 67.779541%, 86.268616%)" offset="0.0273438"/><stop stop-opacity="1" stop-color="rgb(82.337952%, 67.617798%, 86.317444%)" offset="0.03125"/><stop stop-opacity="1" stop-color="rgb(82.377625%, 67.454529%, 86.366272%)" offset="0.0351562"/><stop stop-opacity="1" stop-color="rgb(82.417297%, 67.292786%, 86.4151%)" offset="0.0390625"/><stop stop-opacity="1" stop-color="rgb(82.45697%, 67.129517%, 86.465454%)" offset="0.0429688"/><stop stop-opacity="1" stop-color="rgb(82.496643%, 66.967773%, 86.514282%)" offset="0.046875"/><stop stop-opacity="1" stop-color="rgb(82.536316%, 66.804504%, 86.56311%)" offset="0.0507812"/><stop stop-opacity="1" stop-color="rgb(82.577515%, 66.642761%, 86.613464%)" offset="0.0546875"/><stop stop-opacity="1" stop-color="rgb(82.617188%, 66.479492%, 86.662292%)" offset="0.0585938"/><stop stop-opacity="1" stop-color="rgb(82.65686%, 66.317749%, 86.711121%)" offset="0.0625"/><stop stop-opacity="1" stop-color="rgb(82.696533%, 66.15448%, 86.759949%)" offset="0.0664062"/><stop stop-opacity="1" stop-color="rgb(82.736206%, 65.992737%, 86.810303%)" offset="0.0703125"/><stop stop-opacity="1" stop-color="rgb(82.775879%, 65.829468%, 86.859131%)" offset="0.0742188"/><stop stop-opacity="1" stop-color="rgb(82.815552%, 65.667725%, 86.907959%)" offset="0.078125"/><stop stop-opacity="1" stop-color="rgb(82.855225%, 65.504456%, 86.956787%)" offset="0.0820312"/><stop stop-opacity="1" stop-color="rgb(82.894897%, 65.342712%, 87.007141%)" offset="0.0859375"/><stop stop-opacity="1" stop-color="rgb(82.936096%, 65.179443%, 87.055969%)" offset="0.0898438"/><stop stop-opacity="1" stop-color="rgb(82.975769%, 65.0177%, 87.104797%)" offset="0.09375"/><stop stop-opacity="1" stop-color="rgb(83.015442%, 64.854431%, 87.153625%)" offset="0.0976562"/><stop stop-opacity="1" stop-color="rgb(83.055115%, 64.692688%, 87.203979%)" offset="0.101562"/><stop stop-opacity="1" stop-color="rgb(83.094788%, 64.529419%, 87.252808%)" offset="0.105469"/><stop stop-opacity="1" stop-color="rgb(83.13446%, 64.367676%, 87.301636%)" offset="0.109375"/><stop stop-opacity="1" stop-color="rgb(83.174133%, 64.204407%, 87.350464%)" offset="0.113281"/><stop stop-opacity="1" stop-color="rgb(83.213806%, 64.042664%, 87.400818%)" offset="0.117188"/><stop stop-opacity="1" stop-color="rgb(83.253479%, 63.879395%, 87.449646%)" offset="0.121094"/><stop stop-opacity="1" stop-color="rgb(83.294678%, 63.717651%, 87.498474%)" offset="0.125"/><stop stop-opacity="1" stop-color="rgb(83.334351%, 63.554382%, 87.547302%)" offset="0.128906"/><stop stop-opacity="1" stop-color="rgb(83.374023%, 63.392639%, 87.597656%)" offset="0.132812"/><stop stop-opacity="1" stop-color="rgb(83.413696%, 63.22937%, 87.646484%)" offset="0.136719"/><stop stop-opacity="1" stop-color="rgb(83.453369%, 63.067627%, 87.695312%)" offset="0.140625"/><stop stop-opacity="1" stop-color="rgb(83.493042%, 62.904358%, 87.744141%)" offset="0.144531"/><stop stop-opacity="1" stop-color="rgb(83.532715%, 62.742615%, 87.794495%)" offset="0.148438"/><stop stop-opacity="1" stop-color="rgb(83.572388%, 62.580872%, 87.843323%)" offset="0.152344"/><stop stop-opacity="1" stop-color="rgb(83.613586%, 62.417603%, 87.892151%)" offset="0.15625"/><stop stop-opacity="1" stop-color="rgb(83.653259%, 62.255859%, 87.940979%)" offset="0.160156"/><stop stop-opacity="1" stop-color="rgb(83.692932%, 62.09259%, 87.991333%)" offset="0.164062"/><stop stop-opacity="1" stop-color="rgb(83.732605%, 61.930847%, 88.040161%)" offset="0.167969"/><stop stop-opacity="1" stop-color="rgb(83.772278%, 61.767578%, 88.088989%)" offset="0.171875"/><stop stop-opacity="1" stop-color="rgb(83.811951%, 61.605835%, 88.137817%)" offset="0.175781"/><stop stop-opacity="1" stop-color="rgb(83.851624%, 61.442566%, 88.188171%)" offset="0.179688"/><stop stop-opacity="1" stop-color="rgb(83.891296%, 61.280823%, 88.237%)" offset="0.183594"/><stop stop-opacity="1" stop-color="rgb(83.930969%, 61.117554%, 88.285828%)" offset="0.1875"/><stop stop-opacity="1" stop-color="rgb(83.972168%, 60.955811%, 88.334656%)" offset="0.191406"/><stop stop-opacity="1" stop-color="rgb(84.011841%, 60.792542%, 88.38501%)" offset="0.195312"/><stop stop-opacity="1" stop-color="rgb(84.051514%, 60.630798%, 88.433838%)" offset="0.199219"/><stop stop-opacity="1" stop-color="rgb(84.091187%, 60.467529%, 88.482666%)" offset="0.203125"/><stop stop-opacity="1" stop-color="rgb(84.130859%, 60.305786%, 88.531494%)" offset="0.207031"/><stop stop-opacity="1" stop-color="rgb(84.170532%, 60.142517%, 88.581848%)" offset="0.210938"/><stop stop-opacity="1" stop-color="rgb(84.210205%, 59.980774%, 88.630676%)" offset="0.214844"/><stop stop-opacity="1" stop-color="rgb(84.249878%, 59.817505%, 88.679504%)" offset="0.21875"/><stop stop-opacity="1" stop-color="rgb(84.289551%, 59.655762%, 88.729858%)" offset="0.222656"/><stop stop-opacity="1" stop-color="rgb(84.33075%, 59.492493%, 88.778687%)" offset="0.226562"/><stop stop-opacity="1" stop-color="rgb(84.370422%, 59.33075%, 88.827515%)" offset="0.230469"/><stop stop-opacity="1" stop-color="rgb(84.410095%, 59.16748%, 88.876343%)" offset="0.234375"/><stop stop-opacity="1" stop-color="rgb(84.449768%, 59.005737%, 88.926697%)" offset="0.238281"/><stop stop-opacity="1" stop-color="rgb(84.489441%, 58.842468%, 88.975525%)" offset="0.242188"/><stop stop-opacity="1" stop-color="rgb(84.529114%, 58.680725%, 89.024353%)" offset="0.246094"/><stop stop-opacity="1" stop-color="rgb(84.568787%, 58.517456%, 89.073181%)" offset="0.25"/><stop stop-opacity="1" stop-color="rgb(84.628296%, 58.273315%, 89.147949%)" offset="0.253906"/><stop stop-opacity="1" stop-color="rgb(84.709167%, 57.948303%, 89.245605%)" offset="0.261719"/><stop stop-opacity="1" stop-color="rgb(84.788513%, 57.623291%, 89.344788%)" offset="0.269531"/><stop stop-opacity="1" stop-color="rgb(84.867859%, 57.298279%, 89.442444%)" offset="0.277344"/><stop stop-opacity="1" stop-color="rgb(84.947205%, 56.973267%, 89.541626%)" offset="0.285156"/><stop stop-opacity="1" stop-color="rgb(85.02655%, 56.648254%, 89.639282%)" offset="0.292969"/><stop stop-opacity="1" stop-color="rgb(85.107422%, 56.323242%, 89.738464%)" offset="0.300781"/><stop stop-opacity="1" stop-color="rgb(85.186768%, 55.99823%, 89.836121%)" offset="0.308594"/><stop stop-opacity="1" stop-color="rgb(85.266113%, 55.673218%, 89.935303%)" offset="0.316406"/><stop stop-opacity="1" stop-color="rgb(85.345459%, 55.348206%, 90.032959%)" offset="0.324219"/><stop stop-opacity="1" stop-color="rgb(85.426331%, 55.023193%, 90.132141%)" offset="0.332031"/><stop stop-opacity="1" stop-color="rgb(85.505676%, 54.698181%, 90.229797%)" offset="0.339844"/><stop stop-opacity="1" stop-color="rgb(85.585022%, 54.373169%, 90.328979%)" offset="0.347656"/><stop stop-opacity="1" stop-color="rgb(85.664368%, 54.048157%, 90.426636%)" offset="0.355469"/><stop stop-opacity="1" stop-color="rgb(85.743713%, 53.723145%, 90.525818%)" offset="0.363281"/><stop stop-opacity="1" stop-color="rgb(85.824585%, 53.398132%, 90.623474%)" offset="0.371094"/><stop stop-opacity="1" stop-color="rgb(85.903931%, 53.07312%, 90.722656%)" offset="0.378906"/><stop stop-opacity="1" stop-color="rgb(85.983276%, 52.748108%, 90.820312%)" offset="0.386719"/><stop stop-opacity="1" stop-color="rgb(86.062622%, 52.423096%, 90.919495%)" offset="0.394531"/><stop stop-opacity="1" stop-color="rgb(86.143494%, 52.098083%, 91.017151%)" offset="0.402344"/><stop stop-opacity="1" stop-color="rgb(86.222839%, 51.773071%, 91.116333%)" offset="0.410156"/><stop stop-opacity="1" stop-color="rgb(86.302185%, 51.448059%, 91.213989%)" offset="0.417969"/><stop stop-opacity="1" stop-color="rgb(86.381531%, 51.123047%, 91.313171%)" offset="0.425781"/><stop stop-opacity="1" stop-color="rgb(86.460876%, 50.798035%, 91.410828%)" offset="0.433594"/><stop stop-opacity="1" stop-color="rgb(86.541748%, 50.473022%, 91.51001%)" offset="0.441406"/><stop stop-opacity="1" stop-color="rgb(86.621094%, 50.14801%, 91.607666%)" offset="0.449219"/><stop stop-opacity="1" stop-color="rgb(86.700439%, 49.822998%, 91.706848%)" offset="0.457031"/><stop stop-opacity="1" stop-color="rgb(86.779785%, 49.497986%, 91.804504%)" offset="0.464844"/><stop stop-opacity="1" stop-color="rgb(86.860657%, 49.172974%, 91.903687%)" offset="0.472656"/><stop stop-opacity="1" stop-color="rgb(86.940002%, 48.847961%, 92.001343%)" offset="0.480469"/><stop stop-opacity="1" stop-color="rgb(87.019348%, 48.522949%, 92.100525%)" offset="0.488281"/><stop stop-opacity="1" stop-color="rgb(87.078857%, 48.280334%, 92.173767%)" offset="0.496094"/><stop stop-opacity="1" stop-color="rgb(86.985779%, 48.078918%, 92.106628%)" offset="0.5"/><stop stop-opacity="1" stop-color="rgb(86.761475%, 47.836304%, 91.921997%)" offset="0.503906"/><stop stop-opacity="1" stop-color="rgb(86.538696%, 47.595215%, 91.737366%)" offset="0.507812"/><stop stop-opacity="1" stop-color="rgb(86.314392%, 47.354126%, 91.552734%)" offset="0.511719"/><stop stop-opacity="1" stop-color="rgb(86.090088%, 47.113037%, 91.369629%)" offset="0.515625"/><stop stop-opacity="1" stop-color="rgb(85.865784%, 46.871948%, 91.184998%)" offset="0.519531"/><stop stop-opacity="1" stop-color="rgb(85.641479%, 46.629333%, 91.000366%)" offset="0.523438"/><stop stop-opacity="1" stop-color="rgb(85.417175%, 46.388245%, 90.815735%)" offset="0.527344"/><stop stop-opacity="1" stop-color="rgb(85.192871%, 46.147156%, 90.631104%)" offset="0.53125"/><stop stop-opacity="1" stop-color="rgb(84.968567%, 45.906067%, 90.446472%)" offset="0.535156"/><stop stop-opacity="1" stop-color="rgb(84.744263%, 45.664978%, 90.263367%)" offset="0.539062"/><stop stop-opacity="1" stop-color="rgb(84.519958%, 45.422363%, 90.078735%)" offset="0.542969"/><stop stop-opacity="1" stop-color="rgb(84.295654%, 45.181274%, 89.894104%)" offset="0.546875"/><stop stop-opacity="1" stop-color="rgb(84.07135%, 44.940186%, 89.709473%)" offset="0.550781"/><stop stop-opacity="1" stop-color="rgb(83.847046%, 44.699097%, 89.524841%)" offset="0.554688"/><stop stop-opacity="1" stop-color="rgb(83.622742%, 44.458008%, 89.34021%)" offset="0.558594"/><stop stop-opacity="1" stop-color="rgb(83.398438%, 44.215393%, 89.157104%)" offset="0.5625"/><stop stop-opacity="1" stop-color="rgb(83.174133%, 43.974304%, 88.972473%)" offset="0.566406"/><stop stop-opacity="1" stop-color="rgb(82.949829%, 43.733215%, 88.787842%)" offset="0.570312"/><stop stop-opacity="1" stop-color="rgb(82.725525%, 43.492126%, 88.60321%)" offset="0.574219"/><stop stop-opacity="1" stop-color="rgb(82.502747%, 43.249512%, 88.418579%)" offset="0.578125"/><stop stop-opacity="1" stop-color="rgb(82.278442%, 43.008423%, 88.233948%)" offset="0.582031"/><stop stop-opacity="1" stop-color="rgb(82.054138%, 42.767334%, 88.050842%)" offset="0.585938"/><stop stop-opacity="1" stop-color="rgb(81.829834%, 42.526245%, 87.866211%)" offset="0.589844"/><stop stop-opacity="1" stop-color="rgb(81.60553%, 42.285156%, 87.68158%)" offset="0.59375"/><stop stop-opacity="1" stop-color="rgb(81.381226%, 42.042542%, 87.496948%)" offset="0.597656"/><stop stop-opacity="1" stop-color="rgb(81.156921%, 41.801453%, 87.312317%)" offset="0.601562"/><stop stop-opacity="1" stop-color="rgb(80.932617%, 41.560364%, 87.127686%)" offset="0.605469"/><stop stop-opacity="1" stop-color="rgb(80.708313%, 41.319275%, 86.94458%)" offset="0.609375"/><stop stop-opacity="1" stop-color="rgb(80.484009%, 41.078186%, 86.759949%)" offset="0.613281"/><stop stop-opacity="1" stop-color="rgb(80.259705%, 40.835571%, 86.575317%)" offset="0.617188"/><stop stop-opacity="1" stop-color="rgb(80.0354%, 40.594482%, 86.390686%)" offset="0.621094"/><stop stop-opacity="1" stop-color="rgb(79.811096%, 40.353394%, 86.206055%)" offset="0.625"/><stop stop-opacity="1" stop-color="rgb(79.586792%, 40.112305%, 86.021423%)" offset="0.628906"/><stop stop-opacity="1" stop-color="rgb(79.362488%, 39.871216%, 85.838318%)" offset="0.632812"/><stop stop-opacity="1" stop-color="rgb(79.138184%, 39.628601%, 85.653687%)" offset="0.636719"/><stop stop-opacity="1" stop-color="rgb(78.913879%, 39.387512%, 85.469055%)" offset="0.640625"/><stop stop-opacity="1" stop-color="rgb(78.689575%, 39.146423%, 85.284424%)" offset="0.644531"/><stop stop-opacity="1" stop-color="rgb(78.466797%, 38.905334%, 85.099792%)" offset="0.648438"/><stop stop-opacity="1" stop-color="rgb(78.242493%, 38.664246%, 84.915161%)" offset="0.652344"/><stop stop-opacity="1" stop-color="rgb(78.018188%, 38.421631%, 84.732056%)" offset="0.65625"/><stop stop-opacity="1" stop-color="rgb(77.793884%, 38.180542%, 84.547424%)" offset="0.660156"/><stop stop-opacity="1" stop-color="rgb(77.56958%, 37.939453%, 84.362793%)" offset="0.664062"/><stop stop-opacity="1" stop-color="rgb(77.345276%, 37.698364%, 84.178162%)" offset="0.667969"/><stop stop-opacity="1" stop-color="rgb(77.120972%, 37.45575%, 83.99353%)" offset="0.671875"/><stop stop-opacity="1" stop-color="rgb(76.896667%, 37.214661%, 83.808899%)" offset="0.675781"/><stop stop-opacity="1" stop-color="rgb(76.672363%, 36.973572%, 83.625793%)" offset="0.679688"/><stop stop-opacity="1" stop-color="rgb(76.448059%, 36.732483%, 83.441162%)" offset="0.683594"/><stop stop-opacity="1" stop-color="rgb(76.223755%, 36.491394%, 83.256531%)" offset="0.6875"/><stop stop-opacity="1" stop-color="rgb(75.999451%, 36.248779%, 83.071899%)" offset="0.691406"/><stop stop-opacity="1" stop-color="rgb(75.775146%, 36.00769%, 82.887268%)" offset="0.695312"/><stop stop-opacity="1" stop-color="rgb(75.550842%, 35.766602%, 82.702637%)" offset="0.699219"/><stop stop-opacity="1" stop-color="rgb(75.326538%, 35.525513%, 82.519531%)" offset="0.703125"/><stop stop-opacity="1" stop-color="rgb(75.102234%, 35.284424%, 82.3349%)" offset="0.707031"/><stop stop-opacity="1" stop-color="rgb(74.87793%, 35.041809%, 82.150269%)" offset="0.710938"/><stop stop-opacity="1" stop-color="rgb(74.653625%, 34.80072%, 81.965637%)" offset="0.714844"/><stop stop-opacity="1" stop-color="rgb(74.430847%, 34.559631%, 81.781006%)" offset="0.71875"/><stop stop-opacity="1" stop-color="rgb(74.206543%, 34.318542%, 81.596375%)" offset="0.722656"/><stop stop-opacity="1" stop-color="rgb(73.982239%, 34.077454%, 81.413269%)" offset="0.726562"/><stop stop-opacity="1" stop-color="rgb(73.757935%, 33.834839%, 81.228638%)" offset="0.730469"/><stop stop-opacity="1" stop-color="rgb(73.53363%, 33.59375%, 81.044006%)" offset="0.734375"/><stop stop-opacity="1" stop-color="rgb(73.309326%, 33.352661%, 80.859375%)" offset="0.738281"/><stop stop-opacity="1" stop-color="rgb(73.085022%, 33.111572%, 80.674744%)" offset="0.742188"/><stop stop-opacity="1" stop-color="rgb(72.860718%, 32.870483%, 80.490112%)" offset="0.746094"/><stop stop-opacity="1" stop-color="rgb(72.636414%, 32.627869%, 80.307007%)" offset="0.75"/><stop stop-opacity="1" stop-color="rgb(72.412109%, 32.38678%, 80.122375%)" offset="0.753906"/><stop stop-opacity="1" stop-color="rgb(72.187805%, 32.145691%, 79.937744%)" offset="0.757812"/><stop stop-opacity="1" stop-color="rgb(71.963501%, 31.904602%, 79.753113%)" offset="0.761719"/><stop stop-opacity="1" stop-color="rgb(71.739197%, 31.663513%, 79.568481%)" offset="0.765625"/><stop stop-opacity="1" stop-color="rgb(71.514893%, 31.420898%, 79.38385%)" offset="0.769531"/><stop stop-opacity="1" stop-color="rgb(71.290588%, 31.17981%, 79.200745%)" offset="0.773438"/><stop stop-opacity="1" stop-color="rgb(71.066284%, 30.938721%, 79.016113%)" offset="0.777344"/><stop stop-opacity="1" stop-color="rgb(70.84198%, 30.697632%, 78.831482%)" offset="0.78125"/><stop stop-opacity="1" stop-color="rgb(70.619202%, 30.455017%, 78.646851%)" offset="0.785156"/><stop stop-opacity="1" stop-color="rgb(70.394897%, 30.213928%, 78.462219%)" offset="0.789062"/><stop stop-opacity="1" stop-color="rgb(70.170593%, 29.972839%, 78.277588%)" offset="0.792969"/><stop stop-opacity="1" stop-color="rgb(69.946289%, 29.73175%, 78.094482%)" offset="0.796875"/><stop stop-opacity="1" stop-color="rgb(69.721985%, 29.490662%, 77.909851%)" offset="0.800781"/><stop stop-opacity="1" stop-color="rgb(69.497681%, 29.248047%, 77.72522%)" offset="0.804688"/><stop stop-opacity="1" stop-color="rgb(69.273376%, 29.006958%, 77.540588%)" offset="0.808594"/><stop stop-opacity="1" stop-color="rgb(69.049072%, 28.765869%, 77.355957%)" offset="0.8125"/><stop stop-opacity="1" stop-color="rgb(68.824768%, 28.52478%, 77.171326%)" offset="0.816406"/><stop stop-opacity="1" stop-color="rgb(68.600464%, 28.283691%, 76.98822%)" offset="0.820312"/><stop stop-opacity="1" stop-color="rgb(68.37616%, 28.041077%, 76.803589%)" offset="0.824219"/><stop stop-opacity="1" stop-color="rgb(68.151855%, 27.799988%, 76.618958%)" offset="0.828125"/><stop stop-opacity="1" stop-color="rgb(67.927551%, 27.558899%, 76.434326%)" offset="0.832031"/><stop stop-opacity="1" stop-color="rgb(67.703247%, 27.31781%, 76.249695%)" offset="0.835938"/><stop stop-opacity="1" stop-color="rgb(67.478943%, 27.076721%, 76.065063%)" offset="0.839844"/><stop stop-opacity="1" stop-color="rgb(67.254639%, 26.834106%, 75.881958%)" offset="0.84375"/><stop stop-opacity="1" stop-color="rgb(67.030334%, 26.593018%, 75.697327%)" offset="0.847656"/><stop stop-opacity="1" stop-color="rgb(66.80603%, 26.351929%, 75.512695%)" offset="0.851562"/><stop stop-opacity="1" stop-color="rgb(66.583252%, 26.11084%, 75.328064%)" offset="0.855469"/><stop stop-opacity="1" stop-color="rgb(66.358948%, 25.869751%, 75.143433%)" offset="0.859375"/><stop stop-opacity="1" stop-color="rgb(66.134644%, 25.627136%, 74.958801%)" offset="0.863281"/><stop stop-opacity="1" stop-color="rgb(65.910339%, 25.386047%, 74.775696%)" offset="0.867188"/><stop stop-opacity="1" stop-color="rgb(65.686035%, 25.144958%, 74.591064%)" offset="0.871094"/><stop stop-opacity="1" stop-color="rgb(65.461731%, 24.90387%, 74.406433%)" offset="0.875"/><stop stop-opacity="1" stop-color="rgb(65.237427%, 24.661255%, 74.221802%)" offset="0.878906"/><stop stop-opacity="1" stop-color="rgb(65.013123%, 24.420166%, 74.03717%)" offset="0.882812"/><stop stop-opacity="1" stop-color="rgb(64.788818%, 24.179077%, 73.852539%)" offset="0.886719"/><stop stop-opacity="1" stop-color="rgb(64.564514%, 23.937988%, 73.669434%)" offset="0.890625"/><stop stop-opacity="1" stop-color="rgb(64.34021%, 23.696899%, 73.484802%)" offset="0.894531"/><stop stop-opacity="1" stop-color="rgb(64.115906%, 23.454285%, 73.300171%)" offset="0.898438"/><stop stop-opacity="1" stop-color="rgb(63.891602%, 23.213196%, 73.11554%)" offset="0.902344"/><stop stop-opacity="1" stop-color="rgb(63.667297%, 22.972107%, 72.930908%)" offset="0.90625"/><stop stop-opacity="1" stop-color="rgb(63.442993%, 22.731018%, 72.747803%)" offset="0.910156"/><stop stop-opacity="1" stop-color="rgb(63.218689%, 22.489929%, 72.563171%)" offset="0.914062"/><stop stop-opacity="1" stop-color="rgb(62.994385%, 22.247314%, 72.37854%)" offset="0.917969"/><stop stop-opacity="1" stop-color="rgb(62.770081%, 22.006226%, 72.193909%)" offset="0.921875"/><stop stop-opacity="1" stop-color="rgb(62.547302%, 21.765137%, 72.009277%)" offset="0.925781"/><stop stop-opacity="1" stop-color="rgb(62.322998%, 21.524048%, 71.824646%)" offset="0.929688"/><stop stop-opacity="1" stop-color="rgb(62.098694%, 21.282959%, 71.641541%)" offset="0.933594"/><stop stop-opacity="1" stop-color="rgb(61.87439%, 21.040344%, 71.456909%)" offset="0.9375"/><stop stop-opacity="1" stop-color="rgb(61.650085%, 20.799255%, 71.272278%)" offset="0.941406"/><stop stop-opacity="1" stop-color="rgb(61.425781%, 20.558167%, 71.087646%)" offset="0.945312"/><stop stop-opacity="1" stop-color="rgb(61.201477%, 20.317078%, 70.903015%)" offset="0.949219"/><stop stop-opacity="1" stop-color="rgb(60.977173%, 20.075989%, 70.718384%)" offset="0.953125"/><stop stop-opacity="1" stop-color="rgb(60.752869%, 19.833374%, 70.535278%)" offset="0.957031"/><stop stop-opacity="1" stop-color="rgb(60.528564%, 19.592285%, 70.350647%)" offset="0.960938"/><stop stop-opacity="1" stop-color="rgb(60.30426%, 19.351196%, 70.166016%)" offset="0.964844"/><stop stop-opacity="1" stop-color="rgb(60.079956%, 19.110107%, 69.981384%)" offset="0.96875"/><stop stop-opacity="1" stop-color="rgb(59.855652%, 18.867493%, 69.796753%)" offset="0.972656"/><stop stop-opacity="1" stop-color="rgb(59.631348%, 18.626404%, 69.612122%)" offset="0.976562"/><stop stop-opacity="1" stop-color="rgb(59.407043%, 18.385315%, 69.429016%)" offset="0.980469"/><stop stop-opacity="1" stop-color="rgb(59.182739%, 18.144226%, 69.244385%)" offset="0.984375"/><stop stop-opacity="1" stop-color="rgb(58.958435%, 17.903137%, 69.059753%)" offset="0.988281"/><stop stop-opacity="1" stop-color="rgb(58.734131%, 17.660522%, 68.875122%)" offset="0.992188"/><stop stop-opacity="1" stop-color="rgb(58.511353%, 17.419434%, 68.690491%)" offset="0.996094"/><stop stop-opacity="1" stop-color="rgb(58.399963%, 17.298889%, 68.598938%)" offset="1"/></radialGradient></defs><rect x="-37.5" width="450" fill="#ffffff" y="-37.499999" height="449.999989" fill-opacity="1"/><rect x="-37.5" width="450" fill="#ffffff" y="-37.499999" height="449.999989" fill-opacity="1"/><rect x="-37.5" fill="url(#cfe4ea3322)" width="450" y="-37.499999" height="449.999989"/><g fill="#ffffff" fill-opacity="1"><g transform="translate(88.204523, 187.29848)"><g><path d="M 12.65625 -13.203125 C 12.675781 -13.203125 12.695312 -13.097656 12.71875 -12.890625 C 12.75 -12.679688 12.78125 -12.445312 12.8125 -12.1875 C 12.84375 -11.9375 12.875 -11.695312 12.90625 -11.46875 C 12.9375 -11.238281 12.953125 -11.109375 12.953125 -11.078125 L 12.625 -11.078125 L 12.375 -11.5625 C 12.125 -12.019531 11.78125 -12.382812 11.34375 -12.65625 C 10.914062 -12.925781 10.476562 -13.0625 10.03125 -13.0625 L 7.28125 -13.0625 L 7.28125 -1.515625 C 7.28125 -1.148438 7.351562 -0.859375 7.5 -0.640625 C 7.65625 -0.421875 7.863281 -0.3125 8.125 -0.3125 L 8.265625 -0.3125 L 8.265625 0 L 5.265625 0 L 5.265625 -0.3125 C 5.578125 -0.3125 5.816406 -0.40625 5.984375 -0.59375 C 6.160156 -0.78125 6.25 -1.085938 6.25 -1.515625 L 6.25 -13.0625 L 3.515625 -13.0625 C 3.066406 -13.0625 2.625 -12.925781 2.1875 -12.65625 C 1.757812 -12.382812 1.421875 -12.019531 1.171875 -11.5625 L 0.921875 -11.078125 L 0.59375 -11.078125 C 0.59375 -11.128906 0.609375 -11.265625 0.640625 -11.484375 C 0.671875 -11.703125 0.703125 -11.9375 0.734375 -12.1875 C 0.765625 -12.445312 0.789062 -12.679688 0.8125 -12.890625 C 0.84375 -13.097656 0.863281 -13.203125 0.875 -13.203125 L 0.90625 -13.3125 L 12.640625 -13.3125 Z M 12.65625 -13.203125 "/></g></g></g><g fill="#ffffff" fill-opacity="1"><g transform="translate(101.733393, 187.29848)"><g><path d="M 13.90625 -6.703125 C 13.90625 -5.796875 13.765625 -4.929688 13.484375 -4.109375 C 13.203125 -3.285156 12.785156 -2.566406 12.234375 -1.953125 C 11.679688 -1.335938 10.988281 -0.847656 10.15625 -0.484375 C 9.332031 -0.128906 8.375 0.046875 7.28125 0.046875 C 6.1875 0.046875 5.222656 -0.128906 4.390625 -0.484375 C 3.566406 -0.847656 2.878906 -1.335938 2.328125 -1.953125 C 1.773438 -2.566406 1.359375 -3.285156 1.078125 -4.109375 C 0.796875 -4.929688 0.65625 -5.796875 0.65625 -6.703125 C 0.65625 -7.617188 0.796875 -8.484375 1.078125 -9.296875 C 1.359375 -10.109375 1.773438 -10.820312 2.328125 -11.4375 C 2.878906 -12.050781 3.566406 -12.539062 4.390625 -12.90625 C 5.222656 -13.269531 6.1875 -13.453125 7.28125 -13.453125 C 8.375 -13.453125 9.332031 -13.269531 10.15625 -12.90625 C 10.988281 -12.539062 11.679688 -12.050781 12.234375 -11.4375 C 12.785156 -10.820312 13.203125 -10.109375 13.484375 -9.296875 C 13.765625 -8.484375 13.90625 -7.617188 13.90625 -6.703125 Z M 7.28125 -0.203125 C 8.195312 -0.203125 8.992188 -0.375 9.671875 -0.71875 C 10.359375 -1.070312 10.929688 -1.546875 11.390625 -2.140625 C 11.847656 -2.734375 12.191406 -3.421875 12.421875 -4.203125 C 12.660156 -4.992188 12.78125 -5.828125 12.78125 -6.703125 C 12.78125 -7.578125 12.660156 -8.40625 12.421875 -9.1875 C 12.191406 -9.96875 11.847656 -10.65625 11.390625 -11.25 C 10.929688 -11.84375 10.359375 -12.316406 9.671875 -12.671875 C 8.992188 -13.023438 8.195312 -13.203125 7.28125 -13.203125 C 6.375 -13.203125 5.578125 -13.023438 4.890625 -12.671875 C 4.203125 -12.316406 3.625 -11.84375 3.15625 -11.25 C 2.695312 -10.65625 2.347656 -9.96875 2.109375 -9.1875 C 1.878906 -8.40625 1.765625 -7.578125 1.765625 -6.703125 C 1.765625 -5.828125 1.878906 -4.992188 2.109375 -4.203125 C 2.347656 -3.421875 2.695312 -2.734375 3.15625 -2.140625 C 3.625 -1.546875 4.203125 -1.070312 4.890625 -0.71875 C 5.578125 -0.375 6.375 -0.203125 7.28125 -0.203125 Z M 7.28125 -0.203125 "/></g></g></g><g fill="#ffffff" fill-opacity="1"><g transform="translate(116.227424, 187.29848)"><g><path d="M 6.203125 -13.3125 C 7.234375 -13.3125 8.164062 -13.148438 9 -12.828125 C 9.84375 -12.515625 10.5625 -12.066406 11.15625 -11.484375 C 11.75 -10.898438 12.207031 -10.203125 12.53125 -9.390625 C 12.863281 -8.578125 13.03125 -7.671875 13.03125 -6.671875 C 13.03125 -5.671875 12.890625 -4.757812 12.609375 -3.9375 C 12.328125 -3.125 11.929688 -2.425781 11.421875 -1.84375 C 10.910156 -1.257812 10.289062 -0.804688 9.5625 -0.484375 C 8.832031 -0.160156 8.03125 0 7.15625 0 L 0.875 0 L 0.875 -0.3125 C 1.195312 -0.3125 1.441406 -0.40625 1.609375 -0.59375 C 1.785156 -0.78125 1.875 -1.085938 1.875 -1.515625 L 1.875 -11.796875 C 1.875 -12.171875 1.796875 -12.46875 1.640625 -12.6875 C 1.492188 -12.90625 1.289062 -13.015625 1.03125 -13.015625 L 0.875 -13.015625 L 0.875 -13.3125 Z M 7.15625 -0.265625 C 7.882812 -0.265625 8.546875 -0.414062 9.140625 -0.71875 C 9.742188 -1.03125 10.257812 -1.460938 10.6875 -2.015625 C 11.113281 -2.578125 11.441406 -3.25 11.671875 -4.03125 C 11.910156 -4.820312 12.03125 -5.703125 12.03125 -6.671875 C 12.03125 -7.628906 11.890625 -8.5 11.609375 -9.28125 C 11.335938 -10.070312 10.945312 -10.742188 10.4375 -11.296875 C 9.925781 -11.859375 9.3125 -12.289062 8.59375 -12.59375 C 7.875 -12.90625 7.078125 -13.0625 6.203125 -13.0625 L 2.875 -13.0625 L 2.875 -0.265625 Z M 7.15625 -0.265625 "/></g></g></g><g fill="#ffffff" fill-opacity="1"><g transform="translate(129.906065, 187.29848)"><g><path d="M 13.90625 -6.703125 C 13.90625 -5.796875 13.765625 -4.929688 13.484375 -4.109375 C 13.203125 -3.285156 12.785156 -2.566406 12.234375 -1.953125 C 11.679688 -1.335938 10.988281 -0.847656 10.15625 -0.484375 C 9.332031 -0.128906 8.375 0.046875 7.28125 0.046875 C 6.1875 0.046875 5.222656 -0.128906 4.390625 -0.484375 C 3.566406 -0.847656 2.878906 -1.335938 2.328125 -1.953125 C 1.773438 -2.566406 1.359375 -3.285156 1.078125 -4.109375 C 0.796875 -4.929688 0.65625 -5.796875 0.65625 -6.703125 C 0.65625 -7.617188 0.796875 -8.484375 1.078125 -9.296875 C 1.359375 -10.109375 1.773438 -10.820312 2.328125 -11.4375 C 2.878906 -12.050781 3.566406 -12.539062 4.390625 -12.90625 C 5.222656 -13.269531 6.1875 -13.453125 7.28125 -13.453125 C 8.375 -13.453125 9.332031 -13.269531 10.15625 -12.90625 C 10.988281 -12.539062 11.679688 -12.050781 12.234375 -11.4375 C 12.785156 -10.820312 13.203125 -10.109375 13.484375 -9.296875 C 13.765625 -8.484375 13.90625 -7.617188 13.90625 -6.703125 Z M 7.28125 -0.203125 C 8.195312 -0.203125 8.992188 -0.375 9.671875 -0.71875 C 10.359375 -1.070312 10.929688 -1.546875 11.390625 -2.140625 C 11.847656 -2.734375 12.191406 -3.421875 12.421875 -4.203125 C 12.660156 -4.992188 12.78125 -5.828125 12.78125 -6.703125 C 12.78125 -7.578125 12.660156 -8.40625 12.421875 -9.1875 C 12.191406 -9.96875 11.847656 -10.65625 11.390625 -11.25 C 10.929688 -11.84375 10.359375 -12.316406 9.671875 -12.671875 C 8.992188 -13.023438 8.195312 -13.203125 7.28125 -13.203125 C 6.375 -13.203125 5.578125 -13.023438 4.890625 -12.671875 C 4.203125 -12.316406 3.625 -11.84375 3.15625 -11.25 C 2.695312 -10.65625 2.347656 -9.96875 2.109375 -9.1875 C 1.878906 -8.40625 1.765625 -7.578125 1.765625 -6.703125 C 1.765625 -5.828125 1.878906 -4.992188 2.109375 -4.203125 C 2.347656 -3.421875 2.695312 -2.734375 3.15625 -2.140625 C 3.625 -1.546875 4.203125 -1.070312 4.890625 -0.71875 C 5.578125 -0.375 6.375 -0.203125 7.28125 -0.203125 Z M 7.28125 -0.203125 "/></g></g></g><g fill="#ffffff" fill-opacity="1"><g transform="translate(144.400096, 187.29848)"><g/></g></g><g fill="#ffffff" fill-opacity="1"><g transform="translate(150.424021, 187.29848)"><g><path d="M 11.046875 -2.03125 C 10.941406 -1.476562 10.847656 -1.007812 10.765625 -0.625 C 10.691406 -0.25 10.648438 -0.0390625 10.640625 0 L 0.875 0 L 0.875 -0.3125 C 1.195312 -0.3125 1.441406 -0.40625 1.609375 -0.59375 C 1.785156 -0.78125 1.875 -1.085938 1.875 -1.515625 L 1.875 -11.796875 C 1.875 -12.160156 1.796875 -12.453125 1.640625 -12.671875 C 1.492188 -12.890625 1.289062 -13 1.03125 -13 L 0.875 -13 L 0.875 -13.3125 L 10.515625 -13.3125 C 10.515625 -12.988281 10.523438 -12.644531 10.546875 -12.28125 C 10.566406 -11.925781 10.582031 -11.585938 10.59375 -11.265625 L 10.328125 -11.265625 L 10.21875 -11.546875 C 10 -12.015625 9.648438 -12.382812 9.171875 -12.65625 C 8.691406 -12.925781 8.171875 -13.0625 7.609375 -13.0625 L 2.875 -13.0625 L 2.875 -8.015625 L 7.03125 -8.015625 C 7.53125 -8.015625 7.957031 -8.085938 8.3125 -8.234375 C 8.675781 -8.390625 8.898438 -8.597656 8.984375 -8.859375 L 9.046875 -9 L 9.3125 -9 L 9.3125 -6.640625 L 9.046875 -6.640625 L 8.984375 -6.8125 C 8.867188 -7.09375 8.632812 -7.320312 8.28125 -7.5 C 7.9375 -7.675781 7.519531 -7.765625 7.03125 -7.765625 L 2.875 -7.765625 L 2.875 -0.25 L 7.75 -0.25 C 8.320312 -0.25 8.863281 -0.382812 9.375 -0.65625 C 9.894531 -0.925781 10.300781 -1.296875 10.59375 -1.765625 L 10.796875 -2.03125 Z M 11.046875 -2.03125 "/></g></g></g><g fill="#ffffff" fill-opacity="1"><g transform="translate(162.205623, 187.29848)"><g><path d="M 1.890625 -10.953125 C 1.890625 -10.617188 2.015625 -10.332031 2.265625 -10.09375 C 2.523438 -9.851562 2.863281 -9.632812 3.28125 -9.4375 C 3.707031 -9.238281 4.191406 -9.050781 4.734375 -8.875 C 5.273438 -8.707031 5.828125 -8.519531 6.390625 -8.3125 C 6.953125 -8.113281 7.503906 -7.890625 8.046875 -7.640625 C 8.585938 -7.390625 9.066406 -7.09375 9.484375 -6.75 C 9.910156 -6.40625 10.25 -6.003906 10.5 -5.546875 C 10.757812 -5.085938 10.890625 -4.539062 10.890625 -3.90625 C 10.890625 -3.40625 10.765625 -2.914062 10.515625 -2.4375 C 10.273438 -1.96875 9.941406 -1.539062 9.515625 -1.15625 C 9.097656 -0.78125 8.601562 -0.476562 8.03125 -0.25 C 7.46875 -0.03125 6.863281 0.078125 6.21875 0.078125 C 5.65625 0.078125 5.101562 0.0546875 4.5625 0.015625 C 4.03125 -0.0234375 3.523438 -0.0859375 3.046875 -0.171875 C 2.566406 -0.253906 2.132812 -0.359375 1.75 -0.484375 C 1.363281 -0.609375 1.03125 -0.75 0.75 -0.90625 L 0.6875 -2.84375 L 1.015625 -2.84375 L 1.265625 -2.34375 C 1.515625 -1.820312 1.875 -1.382812 2.34375 -1.03125 C 2.820312 -0.6875 3.34375 -0.453125 3.90625 -0.328125 C 4.300781 -0.273438 4.6875 -0.234375 5.0625 -0.203125 C 5.4375 -0.179688 5.820312 -0.171875 6.21875 -0.171875 C 6.75 -0.171875 7.253906 -0.265625 7.734375 -0.453125 C 8.222656 -0.640625 8.648438 -0.890625 9.015625 -1.203125 C 9.378906 -1.523438 9.664062 -1.882812 9.875 -2.28125 C 10.09375 -2.675781 10.203125 -3.09375 10.203125 -3.53125 C 10.203125 -4.070312 10.070312 -4.539062 9.8125 -4.9375 C 9.5625 -5.34375 9.222656 -5.695312 8.796875 -6 C 8.367188 -6.300781 7.882812 -6.566406 7.34375 -6.796875 C 6.8125 -7.035156 6.265625 -7.253906 5.703125 -7.453125 C 5.140625 -7.648438 4.585938 -7.847656 4.046875 -8.046875 C 3.515625 -8.253906 3.035156 -8.472656 2.609375 -8.703125 C 2.179688 -8.929688 1.835938 -9.195312 1.578125 -9.5 C 1.328125 -9.800781 1.203125 -10.148438 1.203125 -10.546875 C 1.203125 -11.078125 1.316406 -11.523438 1.546875 -11.890625 C 1.785156 -12.265625 2.101562 -12.5625 2.5 -12.78125 C 2.894531 -13 3.335938 -13.15625 3.828125 -13.25 C 4.328125 -13.351562 4.832031 -13.40625 5.34375 -13.40625 C 5.738281 -13.40625 6.140625 -13.378906 6.546875 -13.328125 C 6.953125 -13.285156 7.34375 -13.21875 7.71875 -13.125 C 8.09375 -13.039062 8.441406 -12.9375 8.765625 -12.8125 C 9.097656 -12.6875 9.390625 -12.5625 9.640625 -12.4375 C 9.578125 -12.34375 9.546875 -12.285156 9.546875 -12.265625 L 9.640625 -12.40625 L 9.703125 -10.453125 L 9.375 -10.453125 C 9.28125 -10.609375 9.195312 -10.78125 9.125 -10.96875 C 9.050781 -11.164062 8.972656 -11.347656 8.890625 -11.515625 C 8.785156 -11.722656 8.644531 -11.921875 8.46875 -12.109375 C 8.300781 -12.304688 8.078125 -12.484375 7.796875 -12.640625 C 7.523438 -12.796875 7.179688 -12.921875 6.765625 -13.015625 C 6.359375 -13.109375 5.875 -13.15625 5.3125 -13.15625 C 4.882812 -13.15625 4.460938 -13.125 4.046875 -13.0625 C 3.640625 -13 3.273438 -12.882812 2.953125 -12.71875 C 2.640625 -12.550781 2.382812 -12.320312 2.1875 -12.03125 C 1.988281 -11.738281 1.890625 -11.378906 1.890625 -10.953125 Z M 1.890625 -10.953125 "/></g></g></g><g fill="#ffffff" fill-opacity="1"><g transform="translate(173.754256, 187.29848)"><g/></g></g><g fill="#ffffff" fill-opacity="1"><g transform="translate(179.77818, 187.29848)"><g><path d="M 11.3125 -8.734375 C 11.3125 -8.054688 11.1875 -7.441406 10.9375 -6.890625 C 10.6875 -6.335938 10.335938 -5.859375 9.890625 -5.453125 C 9.441406 -5.054688 8.90625 -4.75 8.28125 -4.53125 C 7.65625 -4.3125 6.960938 -4.203125 6.203125 -4.203125 L 2.953125 -4.203125 L 2.953125 -1.515625 C 2.953125 -1.160156 3.023438 -0.867188 3.171875 -0.640625 C 3.328125 -0.410156 3.535156 -0.296875 3.796875 -0.296875 L 3.953125 -0.296875 L 3.953125 0 L 0.875 0 L 0.875 -0.296875 L 1.046875 -0.296875 C 1.304688 -0.296875 1.507812 -0.410156 1.65625 -0.640625 C 1.8125 -0.867188 1.890625 -1.160156 1.890625 -1.515625 L 1.890625 -11.796875 C 1.890625 -12.148438 1.8125 -12.4375 1.65625 -12.65625 C 1.507812 -12.882812 1.304688 -13 1.046875 -13 L 0.875 -13 L 0.875 -13.3125 L 7 -13.3125 C 7.644531 -13.3125 8.226562 -13.195312 8.75 -12.96875 C 9.28125 -12.75 9.734375 -12.441406 10.109375 -12.046875 C 10.492188 -11.648438 10.789062 -11.164062 11 -10.59375 C 11.207031 -10.03125 11.3125 -9.410156 11.3125 -8.734375 Z M 6.203125 -4.453125 C 6.804688 -4.453125 7.351562 -4.554688 7.84375 -4.765625 C 8.34375 -4.972656 8.765625 -5.265625 9.109375 -5.640625 C 9.460938 -6.015625 9.734375 -6.460938 9.921875 -6.984375 C 10.117188 -7.515625 10.21875 -8.097656 10.21875 -8.734375 C 10.21875 -9.378906 10.140625 -9.96875 9.984375 -10.5 C 9.828125 -11.03125 9.609375 -11.484375 9.328125 -11.859375 C 9.046875 -12.242188 8.707031 -12.539062 8.3125 -12.75 C 7.914062 -12.957031 7.476562 -13.0625 7 -13.0625 L 2.953125 -13.0625 L 2.953125 -4.453125 Z M 6.203125 -4.453125 "/></g></g></g><g fill="#ffffff" fill-opacity="1"><g transform="translate(191.676267, 187.29848)"><g><path d="M 3.109375 0 L 0.453125 0 L 0.453125 -0.3125 C 0.765625 -0.3125 1.023438 -0.398438 1.234375 -0.578125 C 1.441406 -0.753906 1.628906 -1.035156 1.796875 -1.421875 L 6.6875 -13.328125 L 7 -13.328125 L 6.984375 -13.328125 L 12.078125 -1.5 C 12.242188 -1.125 12.4375 -0.832031 12.65625 -0.625 C 12.875 -0.414062 13.140625 -0.3125 13.453125 -0.3125 L 13.453125 0 L 10.296875 0 L 10.296875 -0.3125 L 10.5 -0.3125 C 10.71875 -0.3125 10.890625 -0.367188 11.015625 -0.484375 C 11.140625 -0.609375 11.203125 -0.769531 11.203125 -0.96875 C 11.203125 -1.039062 11.191406 -1.113281 11.171875 -1.1875 C 11.160156 -1.269531 11.132812 -1.363281 11.09375 -1.46875 C 11.050781 -1.570312 10.992188 -1.703125 10.921875 -1.859375 C 10.847656 -2.015625 10.765625 -2.21875 10.671875 -2.46875 C 10.023438 -2.476562 9.414062 -2.570312 8.84375 -2.75 C 8.269531 -2.9375 7.71875 -3.128906 7.1875 -3.328125 C 6.664062 -3.535156 6.15625 -3.722656 5.65625 -3.890625 C 5.164062 -4.066406 4.675781 -4.15625 4.1875 -4.15625 C 3.820312 -4.15625 3.476562 -4.101562 3.15625 -4 C 2.914062 -3.40625 2.722656 -2.9375 2.578125 -2.59375 C 2.441406 -2.257812 2.335938 -2 2.265625 -1.8125 C 2.191406 -1.632812 2.144531 -1.5 2.125 -1.40625 C 2.113281 -1.320312 2.109375 -1.226562 2.109375 -1.125 C 2.109375 -0.875 2.175781 -0.675781 2.3125 -0.53125 C 2.457031 -0.382812 2.65625 -0.3125 2.90625 -0.3125 L 3.109375 -0.3125 Z M 6.5 -12.125 L 3.296875 -4.3125 C 3.566406 -4.382812 3.863281 -4.421875 4.1875 -4.421875 C 4.6875 -4.421875 5.179688 -4.335938 5.671875 -4.171875 C 6.171875 -4.003906 6.675781 -3.816406 7.1875 -3.609375 C 7.707031 -3.410156 8.242188 -3.222656 8.796875 -3.046875 C 9.359375 -2.867188 9.941406 -2.769531 10.546875 -2.75 Z M 6.5 -12.125 "/></g></g></g><g fill="#ffffff" fill-opacity="1"><g transform="translate(205.621154, 187.29848)"><g><path d="M 12.046875 -0.1875 L 12.046875 0.015625 L 11.46875 0.015625 C 11.269531 0.015625 11.085938 0 10.921875 -0.03125 C 10.765625 -0.0625 10.601562 -0.125 10.4375 -0.21875 C 10.269531 -0.320312 10.082031 -0.46875 9.875 -0.65625 C 9.675781 -0.851562 9.4375 -1.109375 9.15625 -1.421875 C 8.875 -1.734375 8.535156 -2.117188 8.140625 -2.578125 C 7.753906 -3.046875 7.28125 -3.601562 6.71875 -4.25 C 6.644531 -4.238281 6.566406 -4.234375 6.484375 -4.234375 C 6.398438 -4.234375 6.3125 -4.234375 6.21875 -4.234375 L 2.984375 -4.234375 L 2.984375 -1.515625 C 2.984375 -1.160156 3.054688 -0.867188 3.203125 -0.640625 C 3.359375 -0.421875 3.566406 -0.3125 3.828125 -0.3125 L 4 -0.3125 L 4 0 L 0.921875 0 L 0.921875 -0.3125 L 1.0625 -0.3125 C 1.332031 -0.3125 1.546875 -0.421875 1.703125 -0.640625 C 1.859375 -0.867188 1.9375 -1.160156 1.9375 -1.515625 L 1.9375 -11.796875 C 1.9375 -12.160156 1.859375 -12.453125 1.703125 -12.671875 C 1.546875 -12.898438 1.332031 -13.015625 1.0625 -13.015625 L 0.921875 -13.015625 L 0.921875 -13.3125 L 7.015625 -13.3125 C 7.660156 -13.3125 8.25 -13.195312 8.78125 -12.96875 C 9.3125 -12.75 9.765625 -12.441406 10.140625 -12.046875 C 10.523438 -11.648438 10.820312 -11.171875 11.03125 -10.609375 C 11.238281 -10.046875 11.34375 -9.425781 11.34375 -8.75 C 11.34375 -8.195312 11.257812 -7.679688 11.09375 -7.203125 C 10.925781 -6.734375 10.6875 -6.3125 10.375 -5.9375 C 10.070312 -5.570312 9.703125 -5.257812 9.265625 -5 C 8.835938 -4.738281 8.347656 -4.539062 7.796875 -4.40625 C 8.640625 -3.394531 9.3125 -2.609375 9.8125 -2.046875 C 10.320312 -1.484375 10.71875 -1.0625 11 -0.78125 C 11.289062 -0.5 11.5 -0.328125 11.625 -0.265625 C 11.757812 -0.210938 11.882812 -0.1875 12 -0.1875 Z M 6.21875 -4.46875 C 6.820312 -4.46875 7.367188 -4.570312 7.859375 -4.78125 C 8.359375 -4.988281 8.785156 -5.28125 9.140625 -5.65625 C 9.492188 -6.03125 9.765625 -6.476562 9.953125 -7 C 10.148438 -7.53125 10.25 -8.113281 10.25 -8.75 C 10.25 -9.394531 10.171875 -9.976562 10.015625 -10.5 C 9.859375 -11.03125 9.640625 -11.484375 9.359375 -11.859375 C 9.078125 -12.242188 8.734375 -12.539062 8.328125 -12.75 C 7.929688 -12.957031 7.492188 -13.0625 7.015625 -13.0625 L 2.984375 -13.0625 L 2.984375 -4.46875 Z M 6.21875 -4.46875 "/></g></g></g><g fill="#ffffff" fill-opacity="1"><g transform="translate(218.401196, 187.29848)"><g><path d="M 12.65625 -13.203125 C 12.675781 -13.203125 12.695312 -13.097656 12.71875 -12.890625 C 12.75 -12.679688 12.78125 -12.445312 12.8125 -12.1875 C 12.84375 -11.9375 12.875 -11.695312 12.90625 -11.46875 C 12.9375 -11.238281 12.953125 -11.109375 12.953125 -11.078125 L 12.625 -11.078125 L 12.375 -11.5625 C 12.125 -12.019531 11.78125 -12.382812 11.34375 -12.65625 C 10.914062 -12.925781 10.476562 -13.0625 10.03125 -13.0625 L 7.28125 -13.0625 L 7.28125 -1.515625 C 7.28125 -1.148438 7.351562 -0.859375 7.5 -0.640625 C 7.65625 -0.421875 7.863281 -0.3125 8.125 -0.3125 L 8.265625 -0.3125 L 8.265625 0 L 5.265625 0 L 5.265625 -0.3125 C 5.578125 -0.3125 5.816406 -0.40625 5.984375 -0.59375 C 6.160156 -0.78125 6.25 -1.085938 6.25 -1.515625 L 6.25 -13.0625 L 3.515625 -13.0625 C 3.066406 -13.0625 2.625 -12.925781 2.1875 -12.65625 C 1.757812 -12.382812 1.421875 -12.019531 1.171875 -11.5625 L 0.921875 -11.078125 L 0.59375 -11.078125 C 0.59375 -11.128906 0.609375 -11.265625 0.640625 -11.484375 C 0.671875 -11.703125 0.703125 -11.9375 0.734375 -12.1875 C 0.765625 -12.445312 0.789062 -12.679688 0.8125 -12.890625 C 0.84375 -13.097656 0.863281 -13.203125 0.875 -13.203125 L 0.90625 -13.3125 L 12.640625 -13.3125 Z M 12.65625 -13.203125 "/></g></g></g><g fill="#ffffff" fill-opacity="1"><g transform="translate(231.930065, 187.29848)"><g><path d="M 11.046875 -2.03125 C 10.941406 -1.476562 10.847656 -1.007812 10.765625 -0.625 C 10.691406 -0.25 10.648438 -0.0390625 10.640625 0 L 0.875 0 L 0.875 -0.3125 C 1.195312 -0.3125 1.441406 -0.40625 1.609375 -0.59375 C 1.785156 -0.78125 1.875 -1.085938 1.875 -1.515625 L 1.875 -11.796875 C 1.875 -12.160156 1.796875 -12.453125 1.640625 -12.671875 C 1.492188 -12.890625 1.289062 -13 1.03125 -13 L 0.875 -13 L 0.875 -13.3125 L 10.515625 -13.3125 C 10.515625 -12.988281 10.523438 -12.644531 10.546875 -12.28125 C 10.566406 -11.925781 10.582031 -11.585938 10.59375 -11.265625 L 10.328125 -11.265625 L 10.21875 -11.546875 C 10 -12.015625 9.648438 -12.382812 9.171875 -12.65625 C 8.691406 -12.925781 8.171875 -13.0625 7.609375 -13.0625 L 2.875 -13.0625 L 2.875 -8.015625 L 7.03125 -8.015625 C 7.53125 -8.015625 7.957031 -8.085938 8.3125 -8.234375 C 8.675781 -8.390625 8.898438 -8.597656 8.984375 -8.859375 L 9.046875 -9 L 9.3125 -9 L 9.3125 -6.640625 L 9.046875 -6.640625 L 8.984375 -6.8125 C 8.867188 -7.09375 8.632812 -7.320312 8.28125 -7.5 C 7.9375 -7.675781 7.519531 -7.765625 7.03125 -7.765625 L 2.875 -7.765625 L 2.875 -0.25 L 7.75 -0.25 C 8.320312 -0.25 8.863281 -0.382812 9.375 -0.65625 C 9.894531 -0.925781 10.300781 -1.296875 10.59375 -1.765625 L 10.796875 -2.03125 Z M 11.046875 -2.03125 "/></g></g></g><g fill="#ffffff" fill-opacity="1"><g transform="translate(243.711675, 187.29848)"><g/></g></g><g fill="#ffffff" fill-opacity="1"><g transform="translate(249.7356, 187.29848)"><g><path d="M 6.203125 -13.3125 C 7.234375 -13.3125 8.164062 -13.148438 9 -12.828125 C 9.84375 -12.515625 10.5625 -12.066406 11.15625 -11.484375 C 11.75 -10.898438 12.207031 -10.203125 12.53125 -9.390625 C 12.863281 -8.578125 13.03125 -7.671875 13.03125 -6.671875 C 13.03125 -5.671875 12.890625 -4.757812 12.609375 -3.9375 C 12.328125 -3.125 11.929688 -2.425781 11.421875 -1.84375 C 10.910156 -1.257812 10.289062 -0.804688 9.5625 -0.484375 C 8.832031 -0.160156 8.03125 0 7.15625 0 L 0.875 0 L 0.875 -0.3125 C 1.195312 -0.3125 1.441406 -0.40625 1.609375 -0.59375 C 1.785156 -0.78125 1.875 -1.085938 1.875 -1.515625 L 1.875 -11.796875 C 1.875 -12.171875 1.796875 -12.46875 1.640625 -12.6875 C 1.492188 -12.90625 1.289062 -13.015625 1.03125 -13.015625 L 0.875 -13.015625 L 0.875 -13.3125 Z M 7.15625 -0.265625 C 7.882812 -0.265625 8.546875 -0.414062 9.140625 -0.71875 C 9.742188 -1.03125 10.257812 -1.460938 10.6875 -2.015625 C 11.113281 -2.578125 11.441406 -3.25 11.671875 -4.03125 C 11.910156 -4.820312 12.03125 -5.703125 12.03125 -6.671875 C 12.03125 -7.628906 11.890625 -8.5 11.609375 -9.28125 C 11.335938 -10.070312 10.945312 -10.742188 10.4375 -11.296875 C 9.925781 -11.859375 9.3125 -12.289062 8.59375 -12.59375 C 7.875 -12.90625 7.078125 -13.0625 6.203125 -13.0625 L 2.875 -13.0625 L 2.875 -0.265625 Z M 7.15625 -0.265625 "/></g></g></g><g fill="#ffffff" fill-opacity="1"><g transform="translate(263.414248, 187.29848)"><g><path d="M 11.046875 -2.03125 C 10.941406 -1.476562 10.847656 -1.007812 10.765625 -0.625 C 10.691406 -0.25 10.648438 -0.0390625 10.640625 0 L 0.875 0 L 0.875 -0.3125 C 1.195312 -0.3125 1.441406 -0.40625 1.609375 -0.59375 C 1.785156 -0.78125 1.875 -1.085938 1.875 -1.515625 L 1.875 -11.796875 C 1.875 -12.160156 1.796875 -12.453125 1.640625 -12.671875 C 1.492188 -12.890625 1.289062 -13 1.03125 -13 L 0.875 -13 L 0.875 -13.3125 L 10.515625 -13.3125 C 10.515625 -12.988281 10.523438 -12.644531 10.546875 -12.28125 C 10.566406 -11.925781 10.582031 -11.585938 10.59375 -11.265625 L 10.328125 -11.265625 L 10.21875 -11.546875 C 10 -12.015625 9.648438 -12.382812 9.171875 -12.65625 C 8.691406 -12.925781 8.171875 -13.0625 7.609375 -13.0625 L 2.875 -13.0625 L 2.875 -8.015625 L 7.03125 -8.015625 C 7.53125 -8.015625 7.957031 -8.085938 8.3125 -8.234375 C 8.675781 -8.390625 8.898438 -8.597656 8.984375 -8.859375 L 9.046875 -9 L 9.3125 -9 L 9.3125 -6.640625 L 9.046875 -6.640625 L 8.984375 -6.8125 C 8.867188 -7.09375 8.632812 -7.320312 8.28125 -7.5 C 7.9375 -7.675781 7.519531 -7.765625 7.03125 -7.765625 L 2.875 -7.765625 L 2.875 -0.25 L 7.75 -0.25 C 8.320312 -0.25 8.863281 -0.382812 9.375 -0.65625 C 9.894531 -0.925781 10.300781 -1.296875 10.59375 -1.765625 L 10.796875 -2.03125 Z M 11.046875 -2.03125 "/></g></g></g><g fill="#ffffff" fill-opacity="1"><g transform="translate(275.195842, 187.29848)"><g><path d="M 3.875 -13 C 3.550781 -13 3.304688 -12.90625 3.140625 -12.71875 C 2.972656 -12.53125 2.890625 -12.222656 2.890625 -11.796875 L 2.890625 -0.25 L 7.921875 -0.25 C 8.046875 -0.25 8.222656 -0.265625 8.453125 -0.296875 C 8.679688 -0.335938 8.929688 -0.425781 9.203125 -0.5625 C 9.472656 -0.707031 9.738281 -0.910156 10 -1.171875 C 10.257812 -1.429688 10.476562 -1.785156 10.65625 -2.234375 L 10.8125 -2.203125 C 10.863281 -2.191406 10.910156 -2.175781 10.953125 -2.15625 C 10.992188 -2.144531 11.035156 -2.132812 11.078125 -2.125 C 11.003906 -1.789062 10.941406 -1.484375 10.890625 -1.203125 C 10.828125 -0.953125 10.773438 -0.710938 10.734375 -0.484375 C 10.691406 -0.253906 10.660156 -0.09375 10.640625 0 L 0.875 0 L 0.875 -0.296875 C 1.195312 -0.296875 1.441406 -0.390625 1.609375 -0.578125 C 1.785156 -0.773438 1.875 -1.085938 1.875 -1.515625 L 1.875 -11.796875 C 1.875 -12.160156 1.800781 -12.453125 1.65625 -12.671875 C 1.507812 -12.890625 1.304688 -13 1.046875 -13 L 0.875 -13 L 0.875 -13.3125 L 3.875 -13.3125 Z M 3.875 -13 "/></g></g></g><g fill="#ffffff" fill-opacity="1"><g transform="translate(118.380304, 214.851731)"><g><path d="M 17.21875 -13.28125 C 17.21875 -12.257812 17.023438 -11.328125 16.640625 -10.484375 C 16.265625 -9.640625 15.734375 -8.910156 15.046875 -8.296875 C 14.359375 -7.691406 13.535156 -7.222656 12.578125 -6.890625 C 11.628906 -6.566406 10.582031 -6.40625 9.4375 -6.40625 L 4.484375 -6.40625 L 4.484375 -2.296875 C 4.484375 -1.765625 4.597656 -1.320312 4.828125 -0.96875 C 5.066406 -0.625 5.378906 -0.453125 5.765625 -0.453125 L 6.03125 -0.453125 L 6.03125 0 L 1.34375 0 L 1.34375 -0.453125 L 1.59375 -0.453125 C 1.976562 -0.453125 2.289062 -0.625 2.53125 -0.96875 C 2.769531 -1.320312 2.890625 -1.765625 2.890625 -2.296875 L 2.890625 -17.953125 C 2.890625 -18.484375 2.769531 -18.914062 2.53125 -19.25 C 2.289062 -19.59375 1.976562 -19.765625 1.59375 -19.765625 L 1.34375 -19.765625 L 1.34375 -20.25 L 10.65625 -20.25 C 11.632812 -20.25 12.523438 -20.078125 13.328125 -19.734375 C 14.128906 -19.398438 14.816406 -18.929688 15.390625 -18.328125 C 15.960938 -17.722656 16.410156 -16.988281 16.734375 -16.125 C 17.054688 -15.257812 17.21875 -14.3125 17.21875 -13.28125 Z M 9.4375 -6.78125 C 10.351562 -6.78125 11.1875 -6.9375 11.9375 -7.25 C 12.6875 -7.5625 13.328125 -8.003906 13.859375 -8.578125 C 14.390625 -9.148438 14.800781 -9.835938 15.09375 -10.640625 C 15.394531 -11.441406 15.546875 -12.320312 15.546875 -13.28125 C 15.546875 -14.257812 15.425781 -15.15625 15.1875 -15.96875 C 14.945312 -16.78125 14.613281 -17.472656 14.1875 -18.046875 C 13.757812 -18.617188 13.242188 -19.066406 12.640625 -19.390625 C 12.046875 -19.710938 11.382812 -19.875 10.65625 -19.875 L 4.484375 -19.875 L 4.484375 -6.78125 Z M 9.4375 -6.78125 "/></g></g></g><g fill="#ffffff" fill-opacity="1"><g transform="translate(136.47875, 214.851731)"><g><path d="M 18.328125 -0.28125 L 18.328125 0.03125 L 17.4375 0.03125 C 17.132812 0.03125 16.859375 0.00390625 16.609375 -0.046875 C 16.367188 -0.0976562 16.117188 -0.195312 15.859375 -0.34375 C 15.609375 -0.5 15.332031 -0.71875 15.03125 -1 C 14.726562 -1.289062 14.359375 -1.675781 13.921875 -2.15625 C 13.492188 -2.644531 12.976562 -3.238281 12.375 -3.9375 C 11.78125 -4.632812 11.0625 -5.472656 10.21875 -6.453125 C 10.101562 -6.429688 9.984375 -6.421875 9.859375 -6.421875 C 9.734375 -6.421875 9.601562 -6.421875 9.46875 -6.421875 L 4.53125 -6.421875 L 4.53125 -2.296875 C 4.53125 -1.765625 4.644531 -1.328125 4.875 -0.984375 C 5.113281 -0.648438 5.429688 -0.484375 5.828125 -0.484375 L 6.078125 -0.484375 L 6.078125 0 L 1.390625 0 L 1.390625 -0.484375 L 1.625 -0.484375 C 2.03125 -0.484375 2.347656 -0.648438 2.578125 -0.984375 C 2.816406 -1.328125 2.9375 -1.765625 2.9375 -2.296875 L 2.9375 -17.953125 C 2.9375 -18.503906 2.816406 -18.945312 2.578125 -19.28125 C 2.347656 -19.625 2.03125 -19.796875 1.625 -19.796875 L 1.390625 -19.796875 L 1.390625 -20.25 L 10.6875 -20.25 C 11.664062 -20.25 12.554688 -20.078125 13.359375 -19.734375 C 14.171875 -19.398438 14.863281 -18.929688 15.4375 -18.328125 C 16.007812 -17.722656 16.457031 -16.992188 16.78125 -16.140625 C 17.101562 -15.285156 17.265625 -14.34375 17.265625 -13.3125 C 17.265625 -12.46875 17.132812 -11.6875 16.875 -10.96875 C 16.625 -10.25 16.265625 -9.609375 15.796875 -9.046875 C 15.328125 -8.484375 14.757812 -8.003906 14.09375 -7.609375 C 13.4375 -7.210938 12.695312 -6.910156 11.875 -6.703125 C 13.15625 -5.171875 14.175781 -3.972656 14.9375 -3.109375 C 15.707031 -2.253906 16.304688 -1.613281 16.734375 -1.1875 C 17.171875 -0.769531 17.488281 -0.515625 17.6875 -0.421875 C 17.894531 -0.328125 18.082031 -0.28125 18.25 -0.28125 Z M 9.46875 -6.8125 C 10.375 -6.8125 11.203125 -6.96875 11.953125 -7.28125 C 12.710938 -7.59375 13.359375 -8.035156 13.890625 -8.609375 C 14.429688 -9.179688 14.847656 -9.867188 15.140625 -10.671875 C 15.441406 -11.472656 15.59375 -12.351562 15.59375 -13.3125 C 15.59375 -14.289062 15.472656 -15.179688 15.234375 -15.984375 C 15.003906 -16.785156 14.671875 -17.472656 14.234375 -18.046875 C 13.804688 -18.617188 13.285156 -19.066406 12.671875 -19.390625 C 12.066406 -19.710938 11.40625 -19.875 10.6875 -19.875 L 4.53125 -19.875 L 4.53125 -6.8125 Z M 9.46875 -6.8125 "/></g></g></g><g fill="#ffffff" fill-opacity="1"><g transform="translate(155.918763, 214.851731)"><g><path d="M 21.15625 -10.203125 C 21.15625 -8.816406 20.941406 -7.5 20.515625 -6.25 C 20.085938 -5 19.453125 -3.90625 18.609375 -2.96875 C 17.765625 -2.03125 16.710938 -1.285156 15.453125 -0.734375 C 14.191406 -0.191406 12.738281 0.078125 11.09375 0.078125 C 9.414062 0.078125 7.945312 -0.191406 6.6875 -0.734375 C 5.4375 -1.285156 4.390625 -2.03125 3.546875 -2.96875 C 2.703125 -3.90625 2.0625 -5 1.625 -6.25 C 1.195312 -7.5 0.984375 -8.816406 0.984375 -10.203125 C 0.984375 -11.585938 1.195312 -12.898438 1.625 -14.140625 C 2.0625 -15.378906 2.703125 -16.46875 3.546875 -17.40625 C 4.390625 -18.34375 5.4375 -19.082031 6.6875 -19.625 C 7.945312 -20.175781 9.414062 -20.453125 11.09375 -20.453125 C 12.738281 -20.453125 14.191406 -20.175781 15.453125 -19.625 C 16.710938 -19.082031 17.765625 -18.34375 18.609375 -17.40625 C 19.453125 -16.46875 20.085938 -15.378906 20.515625 -14.140625 C 20.941406 -12.898438 21.15625 -11.585938 21.15625 -10.203125 Z M 11.09375 -0.296875 C 12.46875 -0.296875 13.675781 -0.5625 14.71875 -1.09375 C 15.757812 -1.625 16.628906 -2.34375 17.328125 -3.25 C 18.023438 -4.15625 18.550781 -5.207031 18.90625 -6.40625 C 19.257812 -7.601562 19.4375 -8.867188 19.4375 -10.203125 C 19.4375 -11.535156 19.257812 -12.796875 18.90625 -13.984375 C 18.550781 -15.171875 18.023438 -16.21875 17.328125 -17.125 C 16.628906 -18.03125 15.757812 -18.75 14.71875 -19.28125 C 13.675781 -19.8125 12.46875 -20.078125 11.09375 -20.078125 C 9.707031 -20.078125 8.488281 -19.8125 7.4375 -19.28125 C 6.394531 -18.75 5.519531 -18.03125 4.8125 -17.125 C 4.101562 -16.21875 3.570312 -15.171875 3.21875 -13.984375 C 2.863281 -12.796875 2.6875 -11.535156 2.6875 -10.203125 C 2.6875 -8.867188 2.863281 -7.601562 3.21875 -6.40625 C 3.570312 -5.207031 4.101562 -4.15625 4.8125 -3.25 C 5.519531 -2.34375 6.394531 -1.625 7.4375 -1.09375 C 8.488281 -0.5625 9.707031 -0.296875 11.09375 -0.296875 Z M 11.09375 -0.296875 "/></g></g></g><g fill="#ffffff" fill-opacity="1"><g transform="translate(177.965968, 214.851731)"><g><path d="M 11.5625 0.203125 C 9.976562 0.203125 8.539062 -0.0390625 7.25 -0.53125 C 5.957031 -1.019531 4.851562 -1.710938 3.9375 -2.609375 C 3.019531 -3.515625 2.304688 -4.597656 1.796875 -5.859375 C 1.285156 -7.117188 1.03125 -8.523438 1.03125 -10.078125 C 1.03125 -11.609375 1.285156 -13.003906 1.796875 -14.265625 C 2.304688 -15.523438 3.019531 -16.601562 3.9375 -17.5 C 4.851562 -18.40625 5.957031 -19.101562 7.25 -19.59375 C 8.539062 -20.082031 9.976562 -20.328125 11.5625 -20.328125 C 12.3125 -20.328125 13.066406 -20.285156 13.828125 -20.203125 C 14.597656 -20.117188 15.335938 -19.992188 16.046875 -19.828125 C 16.753906 -19.671875 17.421875 -19.476562 18.046875 -19.25 C 18.671875 -19.019531 19.226562 -18.769531 19.71875 -18.5 L 19.84375 -15.640625 L 19.34375 -15.640625 C 19.269531 -15.753906 19.195312 -15.890625 19.125 -16.046875 C 19.0625 -16.203125 19.003906 -16.335938 18.953125 -16.453125 C 18.546875 -17.296875 17.941406 -18.007812 17.140625 -18.59375 C 16.347656 -19.1875 15.484375 -19.5625 14.546875 -19.71875 C 14.546875 -19.738281 14.398438 -19.765625 14.109375 -19.796875 C 13.828125 -19.828125 13.503906 -19.847656 13.140625 -19.859375 C 12.785156 -19.878906 12.445312 -19.898438 12.125 -19.921875 C 11.800781 -19.941406 11.613281 -19.953125 11.5625 -19.953125 C 10.25 -19.953125 9.046875 -19.710938 7.953125 -19.234375 C 6.867188 -18.765625 5.9375 -18.097656 5.15625 -17.234375 C 4.382812 -16.378906 3.785156 -15.34375 3.359375 -14.125 C 2.941406 -12.90625 2.734375 -11.554688 2.734375 -10.078125 C 2.734375 -8.585938 2.941406 -7.234375 3.359375 -6.015625 C 3.785156 -4.804688 4.382812 -3.765625 5.15625 -2.890625 C 5.9375 -2.023438 6.867188 -1.351562 7.953125 -0.875 C 9.046875 -0.40625 10.25 -0.171875 11.5625 -0.171875 C 11.90625 -0.171875 12.238281 -0.179688 12.5625 -0.203125 C 12.894531 -0.222656 13.226562 -0.25 13.5625 -0.28125 C 14.78125 -0.414062 15.878906 -0.789062 16.859375 -1.40625 C 17.835938 -2.019531 18.535156 -2.773438 18.953125 -3.671875 C 19.003906 -3.785156 19.0625 -3.914062 19.125 -4.0625 C 19.195312 -4.21875 19.269531 -4.359375 19.34375 -4.484375 L 19.84375 -4.484375 L 19.71875 -1.625 C 19.226562 -1.351562 18.671875 -1.101562 18.046875 -0.875 C 17.421875 -0.644531 16.753906 -0.445312 16.046875 -0.28125 C 15.335938 -0.125 14.597656 -0.00390625 13.828125 0.078125 C 13.066406 0.160156 12.3125 0.203125 11.5625 0.203125 Z M 19.71875 -18.484375 C 19.695312 -18.441406 19.675781 -18.410156 19.65625 -18.390625 C 19.644531 -18.378906 19.640625 -18.359375 19.640625 -18.328125 Z M 19.71875 -18.484375 "/></g></g></g><g fill="#ffffff" fill-opacity="1"><g transform="translate(199.076605, 214.851731)"><g><path d="M 16.8125 -3.09375 C 16.632812 -2.25 16.488281 -1.535156 16.375 -0.953125 C 16.257812 -0.378906 16.191406 -0.0625 16.171875 0 L 1.34375 0 L 1.34375 -0.484375 C 1.832031 -0.484375 2.207031 -0.625 2.46875 -0.90625 C 2.726562 -1.195312 2.859375 -1.660156 2.859375 -2.296875 L 2.859375 -17.953125 C 2.859375 -18.503906 2.738281 -18.941406 2.5 -19.265625 C 2.269531 -19.597656 1.957031 -19.765625 1.5625 -19.765625 L 1.34375 -19.765625 L 1.34375 -20.25 L 16 -20.25 C 16 -19.757812 16.015625 -19.238281 16.046875 -18.6875 C 16.078125 -18.144531 16.101562 -17.628906 16.125 -17.140625 L 15.71875 -17.140625 L 15.546875 -17.5625 C 15.203125 -18.269531 14.664062 -18.832031 13.9375 -19.25 C 13.21875 -19.664062 12.425781 -19.875 11.5625 -19.875 L 4.375 -19.875 L 4.375 -12.203125 L 10.703125 -12.203125 C 11.460938 -12.203125 12.113281 -12.316406 12.65625 -12.546875 C 13.195312 -12.773438 13.535156 -13.082031 13.671875 -13.46875 L 13.765625 -13.6875 L 14.171875 -13.6875 L 14.171875 -10.09375 L 13.765625 -10.09375 L 13.671875 -10.359375 C 13.503906 -10.796875 13.15625 -11.148438 12.625 -11.421875 C 12.09375 -11.691406 11.453125 -11.828125 10.703125 -11.828125 L 4.375 -11.828125 L 4.375 -0.375 L 11.796875 -0.375 C 12.660156 -0.375 13.484375 -0.582031 14.265625 -1 C 15.046875 -1.414062 15.664062 -1.976562 16.125 -2.6875 L 16.421875 -3.09375 Z M 16.8125 -3.09375 "/></g></g></g><g fill="#ffffff" fill-opacity="1"><g transform="translate(216.997864, 214.851731)"><g><path d="M 2.890625 -16.65625 C 2.890625 -16.144531 3.082031 -15.707031 3.46875 -15.34375 C 3.851562 -14.988281 4.363281 -14.65625 5 -14.34375 C 5.644531 -14.039062 6.375 -13.757812 7.1875 -13.5 C 8.007812 -13.238281 8.851562 -12.957031 9.71875 -12.65625 C 10.582031 -12.351562 11.421875 -12.007812 12.234375 -11.625 C 13.054688 -11.25 13.785156 -10.796875 14.421875 -10.265625 C 15.066406 -9.742188 15.582031 -9.132812 15.96875 -8.4375 C 16.351562 -7.738281 16.546875 -6.910156 16.546875 -5.953125 C 16.546875 -5.191406 16.359375 -4.445312 15.984375 -3.71875 C 15.617188 -2.988281 15.113281 -2.335938 14.46875 -1.765625 C 13.832031 -1.191406 13.082031 -0.734375 12.21875 -0.390625 C 11.363281 -0.046875 10.445312 0.125 9.46875 0.125 C 8.601562 0.125 7.757812 0.0859375 6.9375 0.015625 C 6.125 -0.046875 5.351562 -0.140625 4.625 -0.265625 C 3.90625 -0.390625 3.25 -0.546875 2.65625 -0.734375 C 2.0625 -0.921875 1.554688 -1.128906 1.140625 -1.359375 L 1.03125 -4.328125 L 1.546875 -4.328125 L 1.921875 -3.5625 C 2.304688 -2.769531 2.859375 -2.109375 3.578125 -1.578125 C 4.296875 -1.046875 5.085938 -0.6875 5.953125 -0.5 C 6.535156 -0.414062 7.113281 -0.351562 7.6875 -0.3125 C 8.269531 -0.269531 8.863281 -0.25 9.46875 -0.25 C 10.28125 -0.25 11.050781 -0.390625 11.78125 -0.671875 C 12.519531 -0.960938 13.164062 -1.347656 13.71875 -1.828125 C 14.269531 -2.316406 14.707031 -2.863281 15.03125 -3.46875 C 15.351562 -4.070312 15.515625 -4.703125 15.515625 -5.359375 C 15.515625 -6.191406 15.320312 -6.910156 14.9375 -7.515625 C 14.550781 -8.117188 14.03125 -8.65625 13.375 -9.125 C 12.726562 -9.59375 11.992188 -10.003906 11.171875 -10.359375 C 10.359375 -10.710938 9.523438 -11.039062 8.671875 -11.34375 C 7.816406 -11.644531 6.976562 -11.945312 6.15625 -12.25 C 5.34375 -12.550781 4.609375 -12.878906 3.953125 -13.234375 C 3.304688 -13.585938 2.789062 -13.992188 2.40625 -14.453125 C 2.019531 -14.910156 1.828125 -15.441406 1.828125 -16.046875 C 1.828125 -16.859375 2.003906 -17.539062 2.359375 -18.09375 C 2.722656 -18.65625 3.203125 -19.101562 3.796875 -19.4375 C 4.398438 -19.78125 5.078125 -20.023438 5.828125 -20.171875 C 6.578125 -20.328125 7.34375 -20.40625 8.125 -20.40625 C 8.726562 -20.40625 9.335938 -20.363281 9.953125 -20.28125 C 10.578125 -20.207031 11.175781 -20.101562 11.75 -19.96875 C 12.320312 -19.832031 12.851562 -19.671875 13.34375 -19.484375 C 13.84375 -19.304688 14.28125 -19.113281 14.65625 -18.90625 C 14.570312 -18.769531 14.53125 -18.6875 14.53125 -18.65625 L 14.65625 -18.890625 L 14.75 -15.890625 L 14.25 -15.890625 C 14.113281 -16.128906 13.988281 -16.394531 13.875 -16.6875 C 13.769531 -16.988281 13.648438 -17.265625 13.515625 -17.515625 C 13.359375 -17.835938 13.148438 -18.144531 12.890625 -18.4375 C 12.628906 -18.738281 12.285156 -19.003906 11.859375 -19.234375 C 11.441406 -19.472656 10.921875 -19.660156 10.296875 -19.796875 C 9.671875 -19.941406 8.929688 -20.015625 8.078125 -20.015625 C 7.429688 -20.015625 6.796875 -19.960938 6.171875 -19.859375 C 5.546875 -19.765625 4.988281 -19.585938 4.5 -19.328125 C 4.007812 -19.078125 3.617188 -18.734375 3.328125 -18.296875 C 3.035156 -17.859375 2.890625 -17.3125 2.890625 -16.65625 Z M 2.890625 -16.65625 "/></g></g></g><g fill="#ffffff" fill-opacity="1"><g transform="translate(234.564749, 214.851731)"><g><path d="M 21.15625 -10.203125 C 21.15625 -8.816406 20.941406 -7.5 20.515625 -6.25 C 20.085938 -5 19.453125 -3.90625 18.609375 -2.96875 C 17.765625 -2.03125 16.710938 -1.285156 15.453125 -0.734375 C 14.191406 -0.191406 12.738281 0.078125 11.09375 0.078125 C 9.414062 0.078125 7.945312 -0.191406 6.6875 -0.734375 C 5.4375 -1.285156 4.390625 -2.03125 3.546875 -2.96875 C 2.703125 -3.90625 2.0625 -5 1.625 -6.25 C 1.195312 -7.5 0.984375 -8.816406 0.984375 -10.203125 C 0.984375 -11.585938 1.195312 -12.898438 1.625 -14.140625 C 2.0625 -15.378906 2.703125 -16.46875 3.546875 -17.40625 C 4.390625 -18.34375 5.4375 -19.082031 6.6875 -19.625 C 7.945312 -20.175781 9.414062 -20.453125 11.09375 -20.453125 C 12.738281 -20.453125 14.191406 -20.175781 15.453125 -19.625 C 16.710938 -19.082031 17.765625 -18.34375 18.609375 -17.40625 C 19.453125 -16.46875 20.085938 -15.378906 20.515625 -14.140625 C 20.941406 -12.898438 21.15625 -11.585938 21.15625 -10.203125 Z M 11.09375 -0.296875 C 12.46875 -0.296875 13.675781 -0.5625 14.71875 -1.09375 C 15.757812 -1.625 16.628906 -2.34375 17.328125 -3.25 C 18.023438 -4.15625 18.550781 -5.207031 18.90625 -6.40625 C 19.257812 -7.601562 19.4375 -8.867188 19.4375 -10.203125 C 19.4375 -11.535156 19.257812 -12.796875 18.90625 -13.984375 C 18.550781 -15.171875 18.023438 -16.21875 17.328125 -17.125 C 16.628906 -18.03125 15.757812 -18.75 14.71875 -19.28125 C 13.675781 -19.8125 12.46875 -20.078125 11.09375 -20.078125 C 9.707031 -20.078125 8.488281 -19.8125 7.4375 -19.28125 C 6.394531 -18.75 5.519531 -18.03125 4.8125 -17.125 C 4.101562 -16.21875 3.570312 -15.171875 3.21875 -13.984375 C 2.863281 -12.796875 2.6875 -11.535156 2.6875 -10.203125 C 2.6875 -8.867188 2.863281 -7.601562 3.21875 -6.40625 C 3.570312 -5.207031 4.101562 -4.15625 4.8125 -3.25 C 5.519531 -2.34375 6.394531 -1.625 7.4375 -1.09375 C 8.488281 -0.5625 9.707031 -0.296875 11.09375 -0.296875 Z M 11.09375 -0.296875 "/></g></g></g></svg>